<?xml version="1.0" encoding="UTF-8" standalone="no"?>
<svg
   xmlns:dc="http://purl.org/dc/elements/1.1/"
   xmlns:cc="http://creativecommons.org/ns#"
   xmlns:rdf="http://www.w3.org/1999/02/22-rdf-syntax-ns#"
   xmlns:svg="http://www.w3.org/2000/svg"
   xmlns="http://www.w3.org/2000/svg"
   xmlns:sodipodi="http://sodipodi.sourceforge.net/DTD/sodipodi-0.dtd"
   xmlns:inkscape="http://www.inkscape.org/namespaces/inkscape"
   version="1.1"
   id="svg2"
   xml:space="preserve"
   width="1000"
   height="666.66669"
   viewBox="0 0 1000 666.66669"
   sodipodi:docname="4274012.eps"><metadata
     id="metadata8"><rdf:RDF><cc:Work
         rdf:about=""><dc:format>image/svg+xml</dc:format><dc:type
           rdf:resource="http://purl.org/dc/dcmitype/StillImage" /></cc:Work></rdf:RDF></metadata><defs
     id="defs6" /><sodipodi:namedview
     pagecolor="#ffffff"
     bordercolor="#666666"
     borderopacity="1"
     objecttolerance="10"
     gridtolerance="10"
     guidetolerance="10"
     inkscape:pageopacity="0"
     inkscape:pageshadow="2"
     inkscape:window-width="640"
     inkscape:window-height="480"
     id="namedview4" /><g
     id="g10"
     inkscape:groupmode="layer"
     inkscape:label="ink_ext_XXXXXX"
     transform="matrix(1.3333333,0,0,-1.3333333,0,666.66667)"><g
       id="g12"
       transform="scale(0.1)"><path
         d="M 7500,5000 H 0 V 1844.46 H 7500 V 5000"
         style="fill:#b6e6e6;fill-opacity:1;fill-rule:nonzero;stroke:none"
         id="path14" /><path
         d="m 936.504,3036.85 c 0.019,1.29 0.098,2.57 0.098,3.86 0,1.67 -0.094,3.32 -0.125,4.99 5.488,-1.52 11.074,-2.77 16.761,-3.76 -5.609,-1.63 -11.207,-3.28 -16.734,-5.09 z M 7500,3867.22 c -0.37,-2.1 -0.89,-4.13 -1.22,-6.24 -2.32,-15.04 -18.47,-23.89 -32.09,-17 -14.37,7.27 -30.64,11.38 -47.89,11.38 -38.56,0 -72.26,-20.45 -90.75,-51.01 -9.09,-15.02 -29.45,-17.64 -42.09,-5.44 -29.88,28.82 -70.61,46.61 -115.59,46.61 -71.52,0 -132.49,-44.83 -155.88,-107.7 -0.85,-2.29 -1.64,-5.18 -2.37,-8.49 -7.05,-31.96 -37.04,-54.09 -69.6,-49.85 -6.4,0.83 -12.46,1.35 -17.72,1.35 -122.93,0 -222.59,-98.83 -222.59,-220.73 v -0.15 c 0.01,-17.75 -15.86,-31.26 -33.45,-28.48 -8.45,1.34 -17.11,2.04 -25.95,2.04 -53.36,0 -100.73,-25.09 -130.95,-64.01 -16.62,-21.38 -47.41,-24.73 -69.28,-8.74 -66.27,48.44 -148.14,77.08 -236.77,77.08 -106.82,0 -203.85,-41.59 -275.55,-109.32 -10.88,-10.28 -28.77,-2.63 -28.75,12.32 0,136.6 -111.61,247.33 -249.28,247.33 -18.9,0 -37.29,-2.1 -54.98,-6.07 -43,-9.63 -88.25,3.85 -116.2,37.82 -96.97,117.85 -243.91,193.03 -408.47,193.03 -242.15,-0.02 -445.74,-162.93 -508.32,-385 -8.28,-29.38 -36.77,-48.45 -67.28,-45.8 -6.68,0.58 -13.44,0.88 -20.27,0.88 -108.04,-0.01 -198.96,-72.13 -227.93,-170.76 -0.06,-0.21 -0.33,-0.2 -0.38,0.01 -37.19,180.83 -198.38,316.89 -391.62,316.89 -35.5,0 -69.9,-4.63 -102.65,-13.28 -34.34,-9.06 -70.36,3.06 -91.67,31.37 -38.69,51.41 -100.49,84.68 -170.13,84.68 -71.6,0 -134.9,-35.2 -173.32,-89.1 -18.04,-25.31 -49.49,-37.06 -80.26,-32.24 -13.39,2.09 -27.12,3.18 -41.1,3.18 -79.38,0 -150.57,-34.78 -198.95,-89.8 -21.32,-24.24 -55.8,-32.75 -84.89,-18.68 -21.06,10.19 -42.9,19.02 -65.41,26.37 -28.5,9.33 -43.4,39.47 -36.11,68.47 3.22,12.76 4.92,26.1 4.92,39.85 0,90.7 -74.11,164.23 -165.53,164.23 -17.99,0 -35.29,-2.88 -51.48,-8.18 -29.78,-9.76 -62.34,1.55 -80.65,26.91 -82.61,114.48 -217.15,189.01 -369.14,189.01 -158.37,-0.01 -297.61,-81.06 -379.01,-203.84 -22.95,-34.61 -66.1,-49.87 -105.65,-36.9 -51.35,16.84 -106.1,26.1 -163.1,26.09 -110.11,0 -212.28,-33.75 -296.93,-91.34 -15.69,-10.68 -37.34,-8.18 -49.85,6.07 -22,25.05 -54.35,40.9 -90.47,40.9 -45.05,0 -84.232,-24.63 -104.763,-61.05 -8.817,-15.63 -26.86,-23.12 -44.309,-18.78 -19.613,4.87 -40.133,7.47 -61.269,7.47 -15.996,0 -31.645,-1.48 -46.813,-4.31 -20.574,-3.84 -40.398,8.92 -46.254,28.95 -24.84,84.96 -103.816,147.07 -197.457,147.07 -1.355,0 -2.711,-0.01 -4.062,-0.04 -21.594,-0.41 -38.985,18.31 -35.575,39.57 1.832,11.44 2.79,23.17 2.79,35.11 0,123.48 -100.887,223.56 -225.329,223.56 -124.445,0 -225.3277,-100.08 -225.3277,-223.56 0,-2.85 0.1093,-5.68 0.2148,-8.52 C 50.6094,3813.37 24.8516,3805.93 0,3796.67 V 2476.59 h 7500 v 1390.63"
         style="fill:#93dbde;fill-opacity:1;fill-rule:nonzero;stroke:none"
         id="path16" /><path
         d="m 2323.52,2599.12 c -33.15,59.73 -141.91,99.85 -212.48,85.31 -7.4,-1.52 -14.58,-3.55 -21.49,-6.03 -26.41,-9.45 -55.34,-0.74 -71.78,21.93 -62.72,86.49 -168.29,136.67 -279.23,125.96 -14.21,-0.69 -28.56,-2.46 -42.95,-5.43 -50.99,-10.5 -95.79,-34.29 -131.58,-66.98 -18.84,-17.21 -48.48,-14.7 -64.66,5.02 -93.3,113.7 -245.23,173.12 -399.55,141.33 -25.11,-5.17 -31.07,-5.67 -53.98,-15 -32.69,-8.79 -44.42,25.17 -48.789,34.38 -25.254,53.25 -84.531,84.44 -144.937,72 -9.477,-1.96 -18.489,-4.9 -26.961,-8.69 -22.399,-10.03 -48.848,-4.93 -63.86,14.45 C 673.512,3110.71 525.84,3170.86 375.746,3139.95 249.91,3114.02 151.078,3029.99 101.465,2921.75 89.9844,2896.7 57.6836,2891.19 38.2734,2910.77 27.0156,2922.12 14.082,2931.66 0,2939.15 V 1700.68 c 1144.34,124.16 2959.44,-53.04 2323.52,898.44"
         style="fill:#ffffff;fill-opacity:1;fill-rule:nonzero;stroke:none"
         id="path18" /><path
         d="m 7500,3065.83 c -69.07,14.32 -138.96,-2.69 -193.25,-42.69 -21.94,-16.16 -51.69,-15.18 -74.13,0.28 -21.06,14.51 -44.44,26.36 -69.93,34.83 -147.94,49.14 -308.13,-31.54 -357.79,-180.21 -4.36,-13.08 -7.63,-26.25 -9.97,-39.42 -2.24,-12.69 -13.26,-21.71 -26.18,-21.42 -40.39,0.91 -79.97,-7.01 -116.31,-22.46 -30.15,-12.81 -65.31,-2.88 -82.41,24.99 -39.91,65.01 -101.96,116.77 -179.9,142.66 -149.99,49.82 -310.45,-12.25 -391.66,-140.84 -10.41,-16.5 -32.03,-20.8 -48.64,-10.5 -10.89,6.77 -22.75,12.39 -35.47,16.62 -66.13,21.95 -136.23,1 -180.02,-47.73 -8.52,-8.53 -15.37,-18.52 -20.76,-28.23 -11.09,-19.98 -35.19,-28.37 -56.4,-19.77 -38.46,15.59 -98.09,25.83 -147.83,-26.52 -13.77,-19.47 -36.24,-31.47 -60.03,-29.29 -187.36,17.17 -279.56,-192.36 -279.56,-192.36 L 7500,1452.75 v 1613.08"
         style="fill:#ffffff;fill-opacity:1;fill-rule:nonzero;stroke:none"
         id="path20" /><path
         d="m 2021.31,3150.32 c 0,0 12.18,4.42 30.63,10.3 0,0 0.36,14.35 8.85,23.18 8.49,8.84 11.07,23.92 14.76,24.66 3.69,0.73 10.33,-12.15 5.54,-20.24 -4.8,-8.1 -7.75,-13.25 -7.01,-22.81 0,0 17.34,1.84 21.4,-4.05 0,0 5.9,-2.4 6.09,-4.6 0,0 -4.8,1.47 -6.46,1.47 -1.66,0 -3.69,-2.58 -7.19,-3.86 -3.51,-1.29 -23.44,-5.16 -23.44,-5.16 0,0 -0.37,-25.39 -6.82,-36.98 -6.46,-11.59 -6.09,-15.64 -8.68,-16 -2.58,-0.37 -6.08,7.54 -4.42,16.74 1.66,9.2 0.92,30.54 -0.18,32.2 -1.11,1.65 -20.12,-2.4 -23.07,5.15"
         style="fill:#368f97;fill-opacity:1;fill-rule:nonzero;stroke:none"
         id="path22" /><path
         d="m 4767.73,4100.72 c 0,0 8.01,2.66 20.14,6.18 0,0 0.49,9.35 6.17,14.96 5.69,5.61 7.63,15.4 10.05,15.82 2.41,0.41 6.53,-8.09 3.25,-13.29 -3.26,-5.19 -5.27,-8.5 -4.96,-14.75 0,0 11.34,0.9 13.88,-3 0,0 3.81,-1.66 3.89,-3.11 0,0 -3.1,1.04 -4.18,1.07 -1.09,0.03 -2.45,-1.61 -4.76,-2.39 -2.3,-0.78 -15.36,-2.96 -15.36,-2.96 0,0 -0.68,-16.54 -5.09,-23.98 -4.41,-7.45 -4.24,-10.09 -5.93,-10.29 -1.69,-0.19 -3.83,5.02 -2.59,10.99 1.24,5.97 1.13,19.89 0.44,20.99 -0.7,1.1 -13.16,-1.21 -14.95,3.76"
         style="fill:#368f97;fill-opacity:1;fill-rule:nonzero;stroke:none"
         id="path24" /><path
         d="m 6348.57,4295.61 c 0,-105.27 -85.57,-190.61 -191.13,-190.61 -105.56,0 -191.12,85.34 -191.12,190.61 0,105.27 85.56,190.6 191.12,190.6 105.56,0 191.13,-85.33 191.13,-190.6"
         style="fill:#fab933;fill-opacity:1;fill-rule:nonzero;stroke:none"
         id="path26" /><path
         d="M 727.859,4153.98 H 3128.12 c -95.55,142.44 -185.58,60.26 -288.12,99.27 -92.35,35.13 -108.98,174.18 -296.62,122.69 -27.95,-7.27 -59.6,-2.81 -80.37,19.35 -119.69,134.7 -341.29,146.23 -436.2,10.37 -14.87,-20.86 -40.56,-21.09 -56.18,-2 -179.8,228.08 -568.92,160.01 -625.97,-83.55 -4.81,-23.38 -23.62,-30.02 -46.45,-19 -36.86,17.78 -79.51,25.14 -119.91,16.91 -31.57,-6.44 -57.86,-24.06 -81.84,-44.81 -35.46,-30.67 -83.21,-48.34 -130.331,-40.24 -23.414,4.03 -46.227,7.55 -70.109,5.67 -41.672,-3.27 -78.344,-21.95 -112.481,-44.89 -18.934,-12.72 -37.223,-26.37 -55.68,-39.77"
         style="fill:#ffffff;fill-opacity:1;fill-rule:nonzero;stroke:none"
         id="path28" /><path
         d="m 3037.6,4232.96 c -15.66,-16.66 -33.72,-32.03 -55.5,-39.62 -29.54,-10.31 -62.52,-6.16 -93.12,-5.05 -38.46,1.38 -76.94,-1.2 -115.38,1.81 -32.49,2.54 -64.57,8.73 -95.45,19.13 -28.81,9.7 -56.56,22.17 -84.84,33.23 -27.63,10.81 -56.2,20.53 -85.87,23.56 -15.06,1.54 -30.36,1.43 -45.35,-0.77 -16.8,-2.46 -32.27,-8.09 -48.24,-13.52 -66.35,-22.57 -139.27,-24.02 -207.58,-9.97 -35.08,7.22 -68.46,20.53 -103.36,28.43 -36.08,8.16 -70.82,7.05 -106.65,-1.78 -34.43,-8.48 -68.44,-19.43 -104.1,-21.32 -34.26,-1.8 -69.96,2.93 -103.51,9.6 -65.76,13.08 -125.51,41.62 -177.39,83.9 -44.48,36.26 -86.84,86.58 -86.84,146.93 0,9.56 0.87,19.19 2.44,28.75 -89.29,-34.91 -160.27,-102.56 -182.2,-196.16 -4.81,-23.38 -23.62,-30.02 -46.45,-19 -36.86,17.78 -79.51,25.14 -119.91,16.91 -31.57,-6.44 -57.86,-24.06 -81.84,-44.81 -35.46,-30.67 -83.21,-48.34 -130.331,-40.24 -23.414,4.03 -46.227,7.55 -70.113,5.67 -41.668,-3.27 -78.34,-21.95 -112.477,-44.89 -18.934,-12.72 -37.223,-26.37 -55.68,-39.77 H 3128.12 c -30.55,45.53 -60.52,68.06 -90.52,78.98"
         style="fill:#d9f2f3;fill-opacity:1;fill-rule:nonzero;stroke:none"
         id="path30" /><path
         d="m 3284.14,3986.33 h 370.2 c -25.75,29.55 -56.23,42.42 -90.49,40.35 -9.49,-0.47 -19.13,0.96 -29.11,9.14 -42.31,44.09 -118.77,37.65 -144.6,-17.27 -2.45,-5.44 -11.35,-10.5 -22.22,-9.34 -29.11,4.02 -56.62,-7.69 -83.78,-22.88"
         style="fill:#ffffff;fill-opacity:1;fill-rule:nonzero;stroke:none"
         id="path32" /><path
         d="m 3635.96,4003.95 c -2.76,-1.2 -5.62,-2.16 -8.72,-2.66 -12.04,-1.92 -24.42,0.1 -36.14,3 -11.12,2.76 -21.87,5.99 -33.41,6.52 -5.99,0.28 -12.02,-0.01 -17.95,-0.93 -6.02,-0.95 -11.94,-2.56 -17.9,-3.82 -11.21,-2.36 -22.66,-4.16 -34.15,-3.81 -9.74,0.29 -19.6,2.18 -28.93,5.02 -7.24,2.2 -14.38,5.3 -20.18,10.25 -6.07,5.18 -9.72,12.27 -10.63,20.15 -0.79,6.96 0.24,13.83 3.04,20.11 -17.27,-7.36 -32.02,-20.46 -40.85,-39.23 -2.45,-5.44 -11.35,-10.5 -22.22,-9.34 -29.11,4.02 -56.62,-7.69 -83.78,-22.88 h 370.2 c -5.88,6.75 -12.03,12.59 -18.38,17.62"
         style="fill:#d9f2f3;fill-opacity:1;fill-rule:nonzero;stroke:none"
         id="path34" /><path
         d="m 4254.71,3533.98 c 0,0 1126.32,0 1126.54,0 -1.12,0 -5.49,6.13 -6.27,6.95 -5.92,6.15 -12.26,11.9 -18.85,17.32 -22.15,18.22 -47.37,32.77 -74.22,42.89 -17.67,6.67 -36.07,11.39 -54.76,14.12 -27.21,3.96 -53.54,-0.01 -80.74,-0.2 -14.2,-0.1 -29.45,2.21 -41.13,10.89 -10.7,7.96 -16.84,20.71 -25.21,30.81 -4.56,5.51 -9.69,10.53 -15.19,15.1 -11.82,9.82 -25.32,17.56 -39.43,23.61 -30.38,13.04 -64.21,18.82 -97.21,17.06 -31.11,-1.66 -63.25,-10.39 -87.58,-30.57 -4.02,-3.35 -7.81,-6.99 -11.28,-10.91 -7.87,-8.88 -30,-13.8 -47.12,-2.93 -62.12,48.13 -146.21,38.99 -178.91,-12.41 -4.21,-6.62 -15.68,-13.18 -29.43,-7.57 -18.83,10.13 -41.3,11.27 -60.55,1.61 -8.29,-4.17 -15.7,-10.11 -21.46,-17.38 -5.91,-7.47 -8.82,-16.67 -13.67,-24.77 -7.69,-12.87 -23.15,-22.21 -38.45,-20.83 -73.47,6.61 -123.66,-8.17 -185.08,-52.79"
         style="fill:#ffffff;fill-opacity:1;fill-rule:nonzero;stroke:none"
         id="path36" /><path
         d="m 5374.98,3540.93 c -5.92,6.15 -12.26,11.9 -18.85,17.32 -1.31,1.08 -2.66,2.1 -4,3.16 -36.15,-13.95 -80.3,-7.39 -116.85,1.1 -28.33,6.59 -55.87,17.13 -84.96,19.89 -40.1,3.79 -80.53,-2.12 -120.53,3.32 -33.9,4.61 -63.77,20.54 -95.31,32.63 -14.81,5.68 -30.16,10.33 -46.03,11.8 -17.43,1.61 -34.46,-1 -51.27,-5.49 -32.56,-8.7 -63.83,-23.49 -97.82,-25.92 -29.49,-2.11 -60.82,5.97 -80.66,28.93 -14.53,16.83 -21.09,38.01 -20.75,59.24 -14.13,-7.39 -26.1,-17.86 -34.6,-31.2 -4.21,-6.62 -15.68,-13.18 -29.43,-7.57 -18.83,10.13 -41.3,11.27 -60.55,1.61 -8.29,-4.17 -15.7,-10.11 -21.46,-17.38 -5.91,-7.47 -8.82,-16.67 -13.67,-24.77 -7.69,-12.87 -23.15,-22.21 -38.45,-20.83 -73.47,6.61 -123.66,-8.17 -185.08,-52.79 0,0 1126.32,0 1126.54,0 -1.12,0 -5.49,6.13 -6.27,6.95"
         style="fill:#d9f2f3;fill-opacity:1;fill-rule:nonzero;stroke:none"
         id="path38" /><path
         d="m 3391.48,4429.76 h 1033.31 c -64.19,57.29 -137.65,76.57 -205.35,62.44 -30.8,-6.89 -46.2,7.35 -53.64,15.27 -76.26,81.18 -224.81,111.2 -309.68,63.3 -8.16,-4.61 -18.75,-13.98 -52.98,-8.41 -79.34,13.88 -138.62,-23.57 -170.1,-68.38 -4.36,-6.21 -17.06,-15.76 -33.68,-11.58 -72.12,18.6 -147.07,-11.29 -207.88,-52.64"
         style="fill:#ffffff;fill-opacity:1;fill-rule:nonzero;stroke:none"
         id="path40" /><path
         d="m 4347.3,4479.26 c -4.21,-3.48 -8.58,-6.79 -13.2,-9.73 -23.42,-14.92 -51.95,-18.74 -79.23,-19.06 -28.83,-0.34 -59.79,2.31 -87.13,11.88 -14.66,5.13 -28.69,11.92 -43.42,16.82 -14.67,4.88 -29.46,6.92 -44.82,4.42 -27.53,-4.46 -52.53,-18.95 -80.77,-19.99 -27.04,-1 -52.01,12.57 -76.86,21.17 -12.29,4.25 -25.13,7.7 -38.25,7.02 -14.22,-0.73 -25.45,-8.43 -38.52,-13 -25.67,-8.95 -54.75,-7.77 -78.33,6.4 -23.06,13.87 -40,38.89 -43.19,65.64 -0.3,2.55 -0.4,5.22 -0.39,7.92 -39.71,-11.47 -70.4,-36.66 -90.15,-64.77 -4.36,-6.21 -17.06,-15.76 -33.68,-11.58 -72.12,18.6 -147.07,-11.29 -207.88,-52.64 h 1033.31 c -24.73,22.08 -50.85,38.45 -77.49,49.5"
         style="fill:#d9f2f3;fill-opacity:1;fill-rule:nonzero;stroke:none"
         id="path42" /><path
         d="m 5003.2,3986.33 h 1806.4 c -96.18,68.06 -180.57,111.69 -235.89,95.06 -26.69,-8.76 -50.19,-3.93 -63.16,19.08 -103.32,159.87 -226.37,173.2 -305.15,111.24 -5.16,-4.05 -25.89,-13.98 -46.03,-4.6 -85.76,38.05 -321.52,170.92 -440.65,13.01 -5.52,-7.32 -19.6,-19.76 -42.86,-10.17 -129.07,59.01 -245.92,9.7 -268.35,-99.81 -3.99,-12.16 -7.31,-43.45 -50.11,-35 -174.48,34.53 -354.2,-88.81 -354.2,-88.81"
         style="fill:#ffffff;fill-opacity:1;fill-rule:nonzero;stroke:none"
         id="path44" /><path
         d="m 6704.86,4051.93 c -19.89,-8.96 -40.28,-16.3 -62.16,-18.9 -29.16,-3.46 -59.5,-0.61 -88.55,2.66 -29.46,3.31 -59.07,7.34 -88,13.86 -55.9,12.6 -110.19,31.86 -166.78,41.45 -28.18,4.77 -56.92,6.93 -85.42,4.23 -29.94,-2.84 -58.1,-11.96 -85.53,-23.88 -23.18,-10.07 -46.24,-19.74 -71.61,-22.36 -24.23,-2.51 -48.95,-0.99 -73.05,2.15 -23.78,3.09 -46.57,8.69 -68.98,17.24 -22.04,8.4 -43.52,18.41 -66.36,24.56 -25.29,6.8 -51.43,7.89 -77.15,2.9 -22.82,-4.44 -44.62,-12.66 -66.68,-19.78 -43.24,-13.95 -92.91,-20.96 -133.13,5.78 -35.4,23.53 -41.93,67.02 -41.52,106.36 0.16,15 1.42,29.68 4.61,44.02 -64.9,-11.3 -113.41,-55.54 -127.04,-122.08 -3.99,-12.16 -7.31,-43.45 -50.11,-35 -174.48,34.53 -354.2,-88.81 -354.2,-88.81 h 1806.4 c -36.99,26.18 -72.21,48.69 -104.74,65.6"
         style="fill:#d9f2f3;fill-opacity:1;fill-rule:nonzero;stroke:none"
         id="path46" /><path
         d="m 7500,2235.18 -729.45,371.32 c -270.14,126.04 -547.58,157.98 -902.23,-17.64 -138.42,-66.23 -266.5,-67.54 -403.06,0 -157.66,76.85 -313.98,160.11 -473.73,230.9 -239.19,105.98 -460.19,238.9 -716.52,282.84 C 3726.37,3196.66 3159.39,2972.93 2662.13,2725.23 2330.15,2559.86 2015.65,2347 1731.66,2088.72 1569.83,1941.54 1411.4,1783.34 1272.6,1607.12 H 7500 v 628.06"
         style="fill:#55c388;fill-opacity:1;fill-rule:nonzero;stroke:none"
         id="path48" /><path
         d="m 5851.04,2580.92 -568.72,-278.34 355.69,237.04 c 0,0 97.68,-11.09 213.03,41.3"
         style="fill:#45be81;fill-opacity:1;fill-rule:nonzero;stroke:none"
         id="path50" /><path
         d="m 7500,2235.18 -729.45,371.32 c -138.15,64.46 -278.24,104.2 -429.55,104.26 -35.04,-8.03 -69.41,-19.5 -100.24,-38.24 -23.42,-14.23 -44.84,-32.54 -64.95,-51.04 -22.09,-20.32 -42.89,-42.45 -59.95,-67.2 -15.55,-22.54 -28.72,-47.96 -32.51,-75.37 -5.65,-40.89 14.61,-80.91 43.55,-108.74 29.22,-28.12 67.14,-46.06 105.22,-58.91 87.63,-29.58 182.26,-36.7 274.12,-39.97 38.26,-1.36 76.54,-1.62 114.82,-2.18 70.22,-1.02 140.46,-3.31 210.64,-5.8 77.99,-2.77 155.85,-6.91 233.68,-12.42 48.45,-3.44 97.21,-5.86 144.72,-16.67 45.41,-10.32 92.91,-29.18 120.57,-68.59 22.02,-31.35 30.83,-75.4 22.03,-112.72 -17.37,-73.61 -95.85,-114.76 -160.31,-140.6 -73.59,-29.52 -151.53,-46.13 -228.94,-62.22 -14.19,-2.95 -28.52,-5.63 -42.49,-9.5 -20.32,-5.63 -40.06,-13.29 -59.19,-22.06 -43.43,-19.96 -85.11,-45.66 -120.39,-77.99 -30.38,-27.83 -60.63,-64.52 -64.02,-107.26 -0.72,-9.1 -0.06,-17.82 1.68,-26.16 H 7500 v 628.06"
         style="fill:#5ec791;fill-opacity:1;fill-rule:nonzero;stroke:none"
         id="path52" /><path
         d="m 4163.19,1682.55 c -150.88,314.92 268.31,712.39 307.48,758.65 34.64,40.92 66.83,84.65 92.15,130.02 22.9,41.03 48.22,93.95 30.07,139.28 -12.42,31.03 -44.4,52.19 -79.1,65.86 -79.17,31.21 -173.75,34.64 -260.03,35.88 -79.05,1.13 -158.45,-2.27 -236.07,12.92 -38.63,7.56 -77.91,19.69 -107.81,41.89 -29.68,22.04 -44.46,52.77 -44.22,85.47 0.32,43.3 24.44,83 51.51,119.08 13.46,17.93 28.08,35.26 43.46,52.14 -447.38,-13.1 -895.8,-197.91 -1298.5,-398.51 C 2330.15,2559.86 2015.65,2347 1731.66,2088.72 1569.83,1941.54 1411.4,1783.34 1272.6,1607.12 h 2909.41 c -8.23,24.57 -14.63,49.7 -18.82,75.43"
         style="fill:#45be81;fill-opacity:1;fill-rule:nonzero;stroke:none"
         id="path54" /><path
         d="m 2855.36,2597.4 c -2.69,10.33 -11.15,9.82 -13.24,0 l -14.59,-63.28 9.1,-3.89 c 1.98,-0.89 1.35,-3.28 -0.88,-3.28 l -9.79,0.12 -35.5,-154.43 20.45,-9.16 c 2.31,-1.36 1.88,-3.71 -1.05,-3.42 l -22.24,0.22 -23.16,-100.74 h 168.56 l -40.62,176.71 -12.67,-0.17 c -2.5,0.16 -2.65,2.2 -1,3.3 l 11.23,7.19 -34.6,150.83"
         style="fill:#286d78;fill-opacity:1;fill-rule:nonzero;stroke:none"
         id="path56" /><path
         d="m 3249.74,2591 c -2.69,10.34 -11.15,9.83 -13.25,0 l -14.58,-63.28 9.1,-3.88 c 1.98,-0.9 1.35,-3.29 -0.88,-3.28 l -9.8,0.11 -35.5,-154.43 20.46,-9.16 c 2.31,-1.36 1.87,-3.7 -1.05,-3.42 l -22.25,0.23 -23.15,-100.75 h 168.55 l -40.61,176.71 -12.67,-0.16 c -2.51,0.15 -2.66,2.19 -1.01,3.3 l 11.24,7.19 -34.6,150.82"
         style="fill:#286d78;fill-opacity:1;fill-rule:nonzero;stroke:none"
         id="path58" /><path
         d="m 3443.85,2485.63 c -2.69,10.35 -11.15,9.83 -13.24,0 l -14.59,-63.27 9.1,-3.88 c 1.98,-0.9 1.35,-3.28 -0.88,-3.28 l -9.8,0.11 -35.49,-154.43 20.45,-9.16 c 2.31,-1.36 1.88,-3.71 -1.05,-3.42 l -22.24,0.23 -23.16,-100.75 h 168.56 l -40.62,176.71 -12.67,-0.16 c -2.51,0.15 -2.66,2.19 -1.01,3.3 l 11.24,7.18 -34.6,150.82"
         style="fill:#286d78;fill-opacity:1;fill-rule:nonzero;stroke:none"
         id="path60" /><path
         d="m 2724.48,2548.59 c -2.56,8.83 -10.59,8.4 -12.58,0 l -13.85,-54.03 8.63,-3.32 c 1.89,-0.76 1.29,-2.8 -0.83,-2.8 l -9.3,0.1 -33.72,-131.88 19.43,-7.82 c 2.19,-1.16 1.78,-3.17 -1,-2.91 l -21.12,0.18 -22,-86.03 h 160.1 l -38.58,150.91 -12.04,-0.15 c -2.38,0.14 -2.52,1.88 -0.95,2.82 l 10.67,6.13 -32.86,128.8"
         style="fill:#286d78;fill-opacity:1;fill-rule:nonzero;stroke:none"
         id="path62" /><path
         d="m 3351.77,2427.35 c -1.94,6.69 -8.02,6.36 -9.53,0 l -10.5,-40.94 6.55,-2.51 c 1.43,-0.58 0.97,-2.13 -0.63,-2.13 l -7.05,0.08 -25.55,-99.94 14.72,-5.92 c 1.66,-0.88 1.35,-2.4 -0.76,-2.21 l -16.01,0.15 -16.66,-65.2 h 121.31 l -29.24,114.35 -9.11,-0.11 c -1.81,0.11 -1.92,1.42 -0.73,2.14 l 8.09,4.65 -24.9,97.59"
         style="fill:#286d78;fill-opacity:1;fill-rule:nonzero;stroke:none"
         id="path64" /><path
         d="m 3096.95,2567.31 c -2.72,9.4 -11.27,8.94 -13.39,0 l -14.75,-57.54 9.2,-3.53 c 2,-0.82 1.37,-2.99 -0.89,-2.99 l -9.91,0.1 -35.9,-140.43 20.69,-8.33 c 2.33,-1.23 1.89,-3.37 -1.07,-3.1 l -22.49,0.2 -23.43,-91.61 h 170.48 l -41.08,160.69 -12.81,-0.15 c -2.54,0.15 -2.69,2 -1.02,3 l 11.36,6.54 -34.99,137.15"
         style="fill:#286d78;fill-opacity:1;fill-rule:nonzero;stroke:none"
         id="path66" /><path
         d="m 2982.58,2510.91 c -2.22,7.67 -9.21,7.3 -10.93,0 l -12.05,-46.97 7.51,-2.9 c 1.64,-0.66 1.12,-2.43 -0.72,-2.43 l -8.09,0.09 -29.32,-114.66 16.89,-6.79 c 1.91,-1.02 1.56,-2.76 -0.86,-2.54 l -18.37,0.16 -19.12,-74.79 h 139.18 l -33.54,131.2 -10.46,-0.13 c -2.07,0.12 -2.19,1.63 -0.83,2.45 l 9.28,5.34 -28.57,111.97"
         style="fill:#286d78;fill-opacity:1;fill-rule:nonzero;stroke:none"
         id="path68" /><path
         d="m 2960.07,1607.12 1058.6,515.54 c 117.88,57.39 231.71,65.16 339.61,0 67.54,-34.79 167.48,-32.99 234.11,2.48 0,0 389.17,221.29 389.22,221.32 300.52,157.63 629.05,-10.1 901.67,-175.5 527.06,-360.74 1026.87,-93.75 1370.58,-563.84 H 2960.07"
         style="fill:#3db884;fill-opacity:1;fill-rule:nonzero;stroke:none"
         id="path70" /><path
         d="m 0,1607.12 h 4971.09 l -1709.75,672.02 c -190.39,74.82 -374.26,84.95 -548.51,0 -109.09,-45.34 -210.03,-46.23 -317.65,0 0,0 -689.02,291.7 -689.11,291.74 C 1220.7,2776.36 690.09,2557.71 249.77,2342.11 161.344,2292.68 78.1094,2242.72 0,2193.32 v -586.2"
         style="fill:#55c388;fill-opacity:1;fill-rule:nonzero;stroke:none"
         id="path72" /><path
         d="m 0,1607.12 h 3391.48 c -5.69,14.44 -12.56,28.61 -20.83,42.38 -67.01,111.61 -208.63,169.99 -341.32,196.01 -147.88,28.98 -302.27,21.15 -450.94,1.24 -129.27,-17.32 -253.41,-57.63 -383.68,-70.16 -99.03,-9.53 -245.32,-3.58 -281.04,99.1 -13.77,39.58 -9.64,82.36 -7.83,123.13 1.82,40.85 3.73,85.55 -18.66,122.66 -23.74,39.34 -70.56,62.26 -116.92,74.5 -52.98,13.99 -109,17.22 -163.94,18.92 -55.68,1.72 -111.48,0.95 -167.1,4.28 -51.3,3.08 -101.41,10.34 -146.88,33.1 -50.78,25.42 -90.77,65.95 -112.61,114.2 -23.23,51.37 -24.01,107.73 -7.98,160.83 14.37,47.63 42.04,89.67 79.6,125.23 C 904.203,2642.69 555.258,2491.69 249.77,2342.11 161.344,2292.68 78.1094,2242.72 0,2193.32 v -586.2"
         style="fill:#45be81;fill-opacity:1;fill-rule:nonzero;stroke:none"
         id="path74" /><path
         d="m 2712.83,2279.14 -456.82,-229.43 292.9,195.13 c 47.72,-0.93 101.91,9.82 163.92,34.3"
         style="fill:#45be81;fill-opacity:1;fill-rule:nonzero;stroke:none"
         id="path76" /><path
         d="M 7500,1609.44 H 0 V 0 h 7500 v 1609.44"
         style="fill:#5ec791;fill-opacity:1;fill-rule:nonzero;stroke:none"
         id="path78" /><path
         d="m 5409.63,620.801 c -475.16,30.179 -578.48,102.609 48.09,162.969 343.87,39.269 1206.1,85.41 2042.28,131.199 v 330.981 c -1483.23,-29.51 -2888.28,-61.84 -3793.73,-112.09 0,0 -790,-40.25 -785.55,-99.6 4.46,-59.362 496.98,-90.541 496.98,-90.541 C 4537.25,852.18 3897.76,774.371 3277.43,747.551 2298.21,691.742 1185.34,659.09 0,639 V 0 h 4770.07 c 213.65,49.7695 487.31,135.039 779.83,231.469 642.79,229.461 659.06,368.34 -140.27,389.332"
         style="fill:#99ddea;fill-opacity:1;fill-rule:nonzero;stroke:none"
         id="path80" /><path
         d="M 7500,974.891 C 7247.62,962.32 5959.13,896.211 5327.51,826.129 4937.82,776.379 4814.03,706.93 4805.47,634.559 4785,427.082 5247.99,470.648 5158.21,274.422 5092.79,138.82 4571.78,46.4805 3738.12,0 h 1031.95 c 213.65,49.7695 487.31,135.039 779.83,231.469 210.79,75.25 354.2,140.761 423.58,195.562 73.1,69.11 -237.85,185.211 -563.85,193.77 -200.46,12.73 -334.74,32.98 -375.95,56.668 -3.05,1.761 -5.59,3.543 -7.62,5.32 -8.08,7.172 -7.82,14.609 1.49,22.223 2.32,1.898 5.21,3.82 8.69,5.73 3.47,1.93 7.51,3.86 12.14,5.789 37.05,15.508 111.68,31.481 229.47,47.071 14.73,1.949 30.13,3.886 46.21,5.82 8.05,0.969 16.26,1.937 24.64,2.898 33.56,3.852 69.86,7.68 109.02,11.45 48.91,5.589 108.32,11.312 176.65,17.152 22.77,1.949 46.54,3.91 71.24,5.887 16.46,1.312 33.35,2.632 50.62,3.961 43.19,3.312 88.88,6.66 136.78,10.039 19.16,1.351 38.67,2.711 58.52,4.062 39.7,2.731 80.76,5.461 123.02,8.219 21.13,1.379 42.57,2.762 64.29,4.152 10.86,0.688 21.79,1.379 32.79,2.078 22,1.379 44.28,2.782 66.82,4.18 11.27,0.691 22.6,1.391 34,2.09 22.79,1.402 45.84,2.801 69.12,4.199 23.28,1.41 46.8,2.82 70.53,4.231 47.47,2.832 95.8,5.671 144.86,8.511 24.53,1.43 49.25,2.84 74.13,4.278 12.44,0.711 24.92,1.421 37.45,2.14 25.03,1.422 50.23,2.86 75.56,4.293 25.34,1.43 50.82,2.86 76.42,4.297 25.6,1.43 51.32,2.883 77.15,4.32 90.39,5.032 182.08,10.09 274.31,15.153 39.53,2.168 79.16,4.347 118.84,6.519 26.45,1.438 52.92,2.899 79.39,4.34 26.47,1.449 52.94,2.899 79.4,4.348 16.81,0.91 33.59,1.832 50.39,2.75 v 59.922"
         style="fill:#75d1d4;fill-opacity:1;fill-rule:nonzero;stroke:none"
         id="path82" /><path
         d="m 1594.44,0 c -193.18,73.9883 -403,234.102 -464.78,0 h 464.78"
         style="fill:#75d1d4;fill-opacity:1;fill-rule:nonzero;stroke:none"
         id="path84" /><path
         d="m 4326.83,1064.92 c 0,0 2720.59,107.2 3173.17,120.71 v 60.32 c -1483.23,-29.51 -2888.28,-61.84 -3793.73,-112.09 0,0 -790,-40.25 -785.55,-99.6 4.46,-59.362 496.98,-90.541 496.98,-90.541 C 4537.25,852.18 3897.76,774.371 3277.43,747.551 2298.21,691.742 1185.34,659.09 0,639 V 511 c 325.547,-1.648 651.023,-9.25 976.52,-15.121 831.32,-15 1661.68,11.851 2487.2,114.73 187.4,23.352 375.01,49.45 558.12,96.602 66.03,17 230.33,54.609 205.03,150.719 -17.54,66.629 -169.01,96.41 -166.47,142.94 -0.03,54.2 266.43,64.05 266.43,64.05"
         style="fill:#75d1d4;fill-opacity:1;fill-rule:nonzero;stroke:none"
         id="path86" /><path
         d="m 3387.55,328.332 c 0,-18.043 -110.84,-32.66 -247.56,-32.66 -136.73,0 -247.57,14.617 -247.57,32.66 0,18.039 110.84,32.66 247.57,32.66 136.72,0 247.56,-14.621 247.56,-32.66"
         style="fill:#75d1d4;fill-opacity:1;fill-rule:nonzero;stroke:none"
         id="path88" /><path
         d="m 3588.4,233.262 c 0,-8.821 -40.7,-15.973 -90.92,-15.973 -50.21,0 -90.92,7.152 -90.92,15.973 0,8.82 40.71,15.968 90.92,15.968 50.22,0 90.92,-7.148 90.92,-15.968"
         style="fill:#75d1d4;fill-opacity:1;fill-rule:nonzero;stroke:none"
         id="path90" /><path
         d="m 4690.01,844 c 0,-8.82 -40.7,-15.969 -90.93,-15.969 -50.21,0 -90.92,7.149 -90.92,15.969 0,8.82 40.71,15.969 90.92,15.969 50.23,0 90.93,-7.149 90.93,-15.969"
         style="fill:#75d1d4;fill-opacity:1;fill-rule:nonzero;stroke:none"
         id="path92" /><path
         d="m 3770.68,513.27 c 0,-11.739 -64.91,-21.25 -145,-21.25 -80.09,0 -145.01,9.511 -145.01,21.25 0,11.73 64.92,21.25 145.01,21.25 80.09,0 145,-9.52 145,-21.25"
         style="fill:#75d1d4;fill-opacity:1;fill-rule:nonzero;stroke:none"
         id="path94" /><path
         d="m 4775.97,295.672 c 0,-11.723 -64.93,-21.25 -145.01,-21.25 -80.09,0 -145.01,9.527 -145.01,21.25 0,11.738 64.92,21.25 145.01,21.25 80.08,0 145.01,-9.512 145.01,-21.25"
         style="fill:#75d1d4;fill-opacity:1;fill-rule:nonzero;stroke:none"
         id="path96" /><path
         d="m 4030.58,843.391 c -0.08,-1.782 -1.41,-7.59 -14.67,-14.481 C 3943.69,791.27 3608.1,761.852 3277.43,747.551 1952.83,671.488 1707.46,871.691 0,734.512 V 575.551 c 1185.31,20.109 2289.83,61.75 3269.05,117.57 475.82,28.129 762.93,75.238 761.53,120.277 -0.08,2.473 -0.01,26.051 0,29.993"
         style="fill:#45be81;fill-opacity:1;fill-rule:nonzero;stroke:none"
         id="path98" /><path
         d="m 7500,1246.19 c -1459.37,-16.67 -3446.41,-0.24 -4213.67,-87.52 0,0 -374.11,-37.4 -365.61,-124.41 0.55,-5.61 5.24,-10.99 13.58,-16.11 13.15,57.34 771.97,85.67 771.97,85.67 905.45,50.25 2310.5,82.58 3793.73,112.09 v 30.28"
         style="fill:#45be81;fill-opacity:1;fill-rule:nonzero;stroke:none"
         id="path100" /><path
         d="m 5470.29,632.582 c -202.89,12.879 -398.56,21.688 -437.99,45.758 -13.01,7.359 -11.97,15.66 -11.97,15.66 0,0 -0.15,-28.238 0.01,-31.348 1.55,-30.152 148.33,-62.863 390.53,-78.261 362.31,-28.129 583.55,-63.512 570.18,-151.149 21.07,14.309 34.19,38.317 37.56,47.039 28.82,86.629 -147.35,125.711 -548.32,152.301"
         style="fill:#45be81;fill-opacity:1;fill-rule:nonzero;stroke:none"
         id="path102" /><path
         d="m 5268.28,746.629 c 69.25,86.293 172.07,93.801 257.53,0 h -257.53"
         style="fill:#45be81;fill-opacity:1;fill-rule:nonzero;stroke:none"
         id="path104" /><path
         d="m 5485.56,680.699 c 34.62,43.153 86.03,46.91 128.77,0 h -128.77"
         style="fill:#45be81;fill-opacity:1;fill-rule:nonzero;stroke:none"
         id="path106" /><path
         d="m 1450.93,1209.45 c 39.24,40.57 97.49,44.1 145.91,0 h -145.91"
         style="fill:#45be81;fill-opacity:1;fill-rule:nonzero;stroke:none"
         id="path108" /><path
         d="m 1786.92,1647.43 h -374.63 v 6.92 h 374.63 v -6.92"
         style="fill:#37a57a;fill-opacity:1;fill-rule:nonzero;stroke:none"
         id="path110" /><path
         d="m 1786.92,1619.34 h -374.63 v 6.91 h 374.63 v -6.91"
         style="fill:#37a57a;fill-opacity:1;fill-rule:nonzero;stroke:none"
         id="path112" /><path
         d="m 1426.05,1670.66 c -0.53,0.66 -1.57,0.66 -2.1,0 l -5.99,-7.31 c -0.18,-0.23 -0.27,-0.5 -0.27,-0.77 v -51.87 c 0,-0.7 0.59,-1.27 1.33,-1.27 h 11.96 c 0.73,0 1.33,0.57 1.33,1.27 v 51.87 c 0,0.27 -0.1,0.54 -0.28,0.77 l -5.98,7.31"
         style="fill:#7fd2a2;fill-opacity:1;fill-rule:nonzero;stroke:none"
         id="path114" /><path
         d="m 1451.04,1670.66 c -0.54,0.66 -1.57,0.66 -2.11,0 l -5.98,-7.31 c -0.18,-0.23 -0.28,-0.5 -0.28,-0.77 v -51.87 c 0,-0.7 0.6,-1.27 1.33,-1.27 h 11.97 c 0.73,0 1.33,0.57 1.33,1.27 v 51.87 c 0,0.27 -0.1,0.54 -0.28,0.77 l -5.98,7.31"
         style="fill:#7fd2a2;fill-opacity:1;fill-rule:nonzero;stroke:none"
         id="path116" /><path
         d="m 1476.03,1670.66 c -0.54,0.66 -1.58,0.66 -2.11,0 l -5.98,-7.31 c -0.18,-0.23 -0.28,-0.5 -0.28,-0.77 v -51.87 c 0,-0.7 0.6,-1.27 1.33,-1.27 h 11.96 c 0.74,0 1.34,0.57 1.34,1.27 v 51.87 c 0,0.27 -0.1,0.54 -0.28,0.77 l -5.98,7.31"
         style="fill:#7fd2a2;fill-opacity:1;fill-rule:nonzero;stroke:none"
         id="path118" /><path
         d="m 1501.01,1670.66 c -0.53,0.66 -1.57,0.66 -2.1,0 l -5.99,-7.31 c -0.18,-0.23 -0.27,-0.5 -0.27,-0.77 v -51.87 c 0,-0.7 0.59,-1.27 1.33,-1.27 h 11.96 c 0.73,0 1.33,0.57 1.33,1.27 v 51.87 c 0,0.27 -0.1,0.54 -0.28,0.77 l -5.98,7.31"
         style="fill:#7fd2a2;fill-opacity:1;fill-rule:nonzero;stroke:none"
         id="path120" /><path
         d="m 1526,1670.66 c -0.54,0.66 -1.57,0.66 -2.11,0 l -5.97,-7.31 c -0.19,-0.23 -0.29,-0.5 -0.29,-0.77 v -51.87 c 0,-0.7 0.6,-1.27 1.33,-1.27 h 11.97 c 0.73,0 1.33,0.57 1.33,1.27 v 51.87 c 0,0.27 -0.1,0.54 -0.28,0.77 l -5.98,7.31"
         style="fill:#7fd2a2;fill-opacity:1;fill-rule:nonzero;stroke:none"
         id="path122" /><path
         d="m 1550.99,1670.66 c -0.3,0.37 -0.73,0.47 -1.16,0.44 -0.44,0.03 -0.87,-0.07 -1.16,-0.44 l -5.98,-7.31 c -0.18,-0.23 -0.28,-0.5 -0.28,-0.77 v -51.87 c 0,-0.7 0.59,-1.27 1.33,-1.27 h 0.21 11.75 0.21 c 0.74,0 1.34,0.57 1.34,1.27 v 51.87 c 0,0.27 -0.1,0.54 -0.28,0.77 l -5.98,7.31"
         style="fill:#7fd2a2;fill-opacity:1;fill-rule:nonzero;stroke:none"
         id="path124" /><path
         d="m 1575.97,1670.66 c -0.29,0.37 -0.73,0.47 -1.16,0.44 -0.43,0.03 -0.86,-0.07 -1.15,-0.44 l -5.98,-7.31 c -0.18,-0.23 -0.28,-0.5 -0.28,-0.77 v -51.87 c 0,-0.7 0.59,-1.27 1.33,-1.27 h 0.21 11.75 0.21 c 0.74,0 1.33,0.57 1.33,1.27 v 51.87 c 0,0.27 -0.1,0.54 -0.28,0.77 l -5.98,7.31"
         style="fill:#7fd2a2;fill-opacity:1;fill-rule:nonzero;stroke:none"
         id="path126" /><path
         d="m 1600.96,1670.66 c -0.3,0.37 -0.73,0.47 -1.16,0.44 -0.43,0.03 -0.86,-0.07 -1.16,-0.44 l -5.98,-7.31 c -0.18,-0.23 -0.28,-0.5 -0.28,-0.77 v -51.87 c 0,-0.7 0.6,-1.27 1.34,-1.27 h 0.21 11.74 0.21 c 0.74,0 1.34,0.57 1.34,1.27 v 51.87 c 0,0.27 -0.1,0.54 -0.28,0.77 l -5.98,7.31"
         style="fill:#7fd2a2;fill-opacity:1;fill-rule:nonzero;stroke:none"
         id="path128" /><path
         d="m 1625.95,1670.66 c -0.3,0.37 -0.73,0.47 -1.16,0.44 -0.43,0.03 -0.87,-0.07 -1.16,-0.44 l -5.98,-7.31 c -0.18,-0.23 -0.28,-0.5 -0.28,-0.77 v -51.87 c 0,-0.7 0.59,-1.27 1.33,-1.27 h 0.21 11.75 0.21 c 0.74,0 1.34,0.57 1.34,1.27 v 51.87 c 0,0.27 -0.1,0.54 -0.29,0.77 l -5.97,7.31"
         style="fill:#7fd2a2;fill-opacity:1;fill-rule:nonzero;stroke:none"
         id="path130" /><path
         d="m 1650.93,1670.66 c -0.29,0.37 -0.72,0.47 -1.15,0.44 -0.44,0.03 -0.87,-0.07 -1.16,-0.44 l -5.98,-7.31 c -0.18,-0.23 -0.29,-0.5 -0.29,-0.77 v -51.87 c 0,-0.7 0.6,-1.27 1.34,-1.27 h 0.21 11.75 0.21 c 0.74,0 1.33,0.57 1.33,1.27 v 51.87 c 0,0.27 -0.1,0.54 -0.28,0.77 l -5.98,7.31"
         style="fill:#7fd2a2;fill-opacity:1;fill-rule:nonzero;stroke:none"
         id="path132" /><path
         d="m 1675.71,1670.66 c -0.53,0.66 -1.57,0.66 -2.11,0 l -5.98,-7.31 c -0.18,-0.23 -0.28,-0.5 -0.28,-0.77 v -51.87 c 0,-0.7 0.6,-1.27 1.34,-1.27 h 11.95 c 0.74,0 1.34,0.57 1.34,1.27 v 51.87 c 0,0.27 -0.1,0.54 -0.28,0.77 l -5.98,7.31"
         style="fill:#7fd2a2;fill-opacity:1;fill-rule:nonzero;stroke:none"
         id="path134" /><path
         d="m 1700.69,1670.66 c -0.53,0.66 -1.57,0.66 -2.1,0 l -5.98,-7.31 c -0.18,-0.23 -0.28,-0.5 -0.28,-0.77 v -51.87 c 0,-0.7 0.59,-1.27 1.33,-1.27 h 11.96 c 0.74,0 1.34,0.57 1.34,1.27 v 51.87 c 0,0.27 -0.1,0.54 -0.29,0.77 l -5.98,7.31"
         style="fill:#7fd2a2;fill-opacity:1;fill-rule:nonzero;stroke:none"
         id="path136" /><path
         d="m 1725.68,1670.66 c -0.53,0.66 -1.57,0.66 -2.11,0 l -5.97,-7.31 c -0.19,-0.23 -0.29,-0.5 -0.29,-0.77 v -51.87 c 0,-0.7 0.6,-1.27 1.34,-1.27 h 11.96 c 0.73,0 1.33,0.57 1.33,1.27 v 51.87 c 0,0.27 -0.09,0.54 -0.28,0.77 l -5.98,7.31"
         style="fill:#7fd2a2;fill-opacity:1;fill-rule:nonzero;stroke:none"
         id="path138" /><path
         d="m 1750.67,1670.66 c -0.53,0.66 -1.57,0.66 -2.11,0 l -5.98,-7.31 c -0.18,-0.23 -0.28,-0.5 -0.28,-0.77 v -51.87 c 0,-0.7 0.6,-1.27 1.34,-1.27 h 11.96 c 0.73,0 1.33,0.57 1.33,1.27 v 51.87 c 0,0.27 -0.1,0.54 -0.28,0.77 l -5.98,7.31"
         style="fill:#7fd2a2;fill-opacity:1;fill-rule:nonzero;stroke:none"
         id="path140" /><path
         d="m 1781.64,1663.35 -5.99,7.31 c -0.53,0.66 -1.57,0.66 -2.1,0 l -5.98,-7.31 c -0.18,-0.23 -0.28,-0.5 -0.28,-0.77 v -51.87 c 0,-0.7 0.6,-1.27 1.33,-1.27 h 11.96 c 0.74,0 1.33,0.57 1.33,1.27 v 51.87 c 0,0.27 -0.09,0.54 -0.27,0.77"
         style="fill:#7fd2a2;fill-opacity:1;fill-rule:nonzero;stroke:none"
         id="path142" /><path
         d="m 364.938,1610.95 h 267.367 v 228.57 H 364.938 v -228.57"
         style="fill:#37a57a;fill-opacity:1;fill-rule:nonzero;stroke:none"
         id="path144" /><path
         d="M 806.84,1610.95 H 632.305 v 228.57 l 87.265,96.18 87.27,-96.18 v -228.57"
         style="fill:#7fd2a2;fill-opacity:1;fill-rule:nonzero;stroke:none"
         id="path146" /><path
         d="M 632.305,1839.52 H 364.938 l 87.269,96.18 H 719.57 l -87.265,-96.18"
         style="fill:#286d78;fill-opacity:1;fill-rule:nonzero;stroke:none"
         id="path148" /><path
         d="m 739.996,1757.48 h 42.094 v 51.84 h -42.094 v -51.84"
         style="fill:#225674;fill-opacity:1;fill-rule:nonzero;stroke:none"
         id="path150" /><path
         d="m 657.055,1757.48 h 42.093 v 51.84 h -42.093 v -51.84"
         style="fill:#225674;fill-opacity:1;fill-rule:nonzero;stroke:none"
         id="path152" /><path
         d="m 739.996,1654.51 h 42.094 v 51.85 h -42.094 v -51.85"
         style="fill:#225674;fill-opacity:1;fill-rule:nonzero;stroke:none"
         id="path154" /><path
         d="m 657.055,1654.51 h 42.093 v 51.85 h -42.093 v -51.85"
         style="fill:#225674;fill-opacity:1;fill-rule:nonzero;stroke:none"
         id="path156" /><path
         d="m 602.535,1757.48 h -42.097 v 51.84 h 42.097 v -51.84"
         style="fill:#225674;fill-opacity:1;fill-rule:nonzero;stroke:none"
         id="path158" /><path
         d="m 519.594,1757.48 h -42.09 v 51.84 h 42.09 v -51.84"
         style="fill:#225674;fill-opacity:1;fill-rule:nonzero;stroke:none"
         id="path160" /><path
         d="m 436.66,1809.32 v -51.84 h -42.094 v 51.84 h 42.094"
         style="fill:#225674;fill-opacity:1;fill-rule:nonzero;stroke:none"
         id="path162" /><path
         d="m 602.535,1654.51 h -42.097 v 51.85 h 42.097 v -51.85"
         style="fill:#225674;fill-opacity:1;fill-rule:nonzero;stroke:none"
         id="path164" /><path
         d="m 519.594,1610.95 h -42.09 v 95.41 h 42.09 v -95.41"
         style="fill:#225674;fill-opacity:1;fill-rule:nonzero;stroke:none"
         id="path166" /><path
         d="m 436.66,1706.36 v -51.85 h -42.094 v 51.85 h 42.094"
         style="fill:#225674;fill-opacity:1;fill-rule:nonzero;stroke:none"
         id="path168" /><path
         d="m 566.039,1881.68 h 28.895 v 71.36 h -28.895 v -71.36"
         style="fill:#37a57a;fill-opacity:1;fill-rule:nonzero;stroke:none"
         id="path170" /><path
         d="m 612.934,1953.04 v -51.52 l -18,-19.84 v 71.36 h 18"
         style="fill:#7fd2a2;fill-opacity:1;fill-rule:nonzero;stroke:none"
         id="path172" /><path
         d="m 848.316,1609.44 h 393.534 v 115.17 H 848.316 v -115.17"
         style="fill:#37a57a;fill-opacity:1;fill-rule:nonzero;stroke:none"
         id="path174" /><path
         d="m 1396.91,1609.44 h -155.06 v 115.17 l 77.53,96.18 77.53,-96.18 v -115.17"
         style="fill:#7fd2a2;fill-opacity:1;fill-rule:nonzero;stroke:none"
         id="path176" /><path
         d="M 1241.85,1724.61 H 848.316 l 77.536,96.18 h 393.528 l -77.53,-96.18"
         style="fill:#286d78;fill-opacity:1;fill-rule:nonzero;stroke:none"
         id="path178" /><path
         d="m 1198.77,1675.69 h 18.88 v 18.71 h -18.88 v -18.71"
         style="fill:#225674;fill-opacity:1;fill-rule:nonzero;stroke:none"
         id="path180" /><path
         d="m 926.438,1675.69 h 18.875 v 18.71 h -18.875 v -18.71"
         style="fill:#225674;fill-opacity:1;fill-rule:nonzero;stroke:none"
         id="path182" /><path
         d="m 871.969,1675.69 h 18.883 v 18.71 h -18.883 v -18.71"
         style="fill:#225674;fill-opacity:1;fill-rule:nonzero;stroke:none"
         id="path184" /><path
         d="m 1144.31,1675.69 h 18.87 v 18.71 h -18.87 v -18.71"
         style="fill:#225674;fill-opacity:1;fill-rule:nonzero;stroke:none"
         id="path186" /><path
         d="m 1089.84,1675.69 h 18.88 v 18.71 h -18.88 v -18.71"
         style="fill:#225674;fill-opacity:1;fill-rule:nonzero;stroke:none"
         id="path188" /><path
         d="m 1035.37,1675.69 h 18.88 v 18.71 h -18.88 v -18.71"
         style="fill:#225674;fill-opacity:1;fill-rule:nonzero;stroke:none"
         id="path190" /><path
         d="m 980.902,1675.69 h 18.879 v 18.71 h -18.879 v -18.71"
         style="fill:#225674;fill-opacity:1;fill-rule:nonzero;stroke:none"
         id="path192" /><path
         d="m 1356.7,1642.57 h 14.21 v 51.83 h -14.21 v -51.83"
         style="fill:#225674;fill-opacity:1;fill-rule:nonzero;stroke:none"
         id="path194" /><path
         d="m 1312.28,1642.57 h 14.2 v 51.83 h -14.2 v -51.83"
         style="fill:#225674;fill-opacity:1;fill-rule:nonzero;stroke:none"
         id="path196" /><path
         d="m 1267.85,1642.57 h 14.21 v 51.83 h -14.21 v -51.83"
         style="fill:#225674;fill-opacity:1;fill-rule:nonzero;stroke:none"
         id="path198" /><path
         d="m 6106.61,1018.15 c 0,-7.78 -35.97,-14.1 -80.34,-14.1 -44.37,0 -80.33,6.32 -80.33,14.1 0,7.8 35.96,14.12 80.33,14.12 44.37,0 80.34,-6.32 80.34,-14.12"
         style="fill:#75d1d4;fill-opacity:1;fill-rule:nonzero;stroke:none"
         id="path200" /><path
         d="m 6245.41,1081.26 c 0,-2.85 -13.12,-5.16 -29.33,-5.16 -16.2,0 -29.32,2.31 -29.32,5.16 0,2.84 13.12,5.15 29.32,5.15 16.21,0 29.33,-2.31 29.33,-5.15"
         style="fill:#75d1d4;fill-opacity:1;fill-rule:nonzero;stroke:none"
         id="path202" /><path
         d="m 3777.26,2084.59 c -3.79,14.54 -15.69,13.82 -18.63,0 l -20.51,-88.98 12.79,-5.47 c 2.79,-1.25 1.91,-4.62 -1.24,-4.61 l -13.77,0.15 -49.92,-217.18 28.76,-12.88 c 3.25,-1.92 2.64,-5.21 -1.47,-4.8 l -31.29,0.3 -32.57,-141.68 h 237.05 l -57.11,248.53 -17.83,-0.25 c -3.52,0.24 -3.74,3.11 -1.41,4.66 l 15.8,10.1 -48.65,212.11"
         style="fill:#286d78;fill-opacity:1;fill-rule:nonzero;stroke:none"
         id="path204" /><path
         d="m 4306.63,2084.59 c -3.78,14.54 -15.67,13.82 -18.62,0 l -20.51,-88.98 12.79,-5.47 c 2.79,-1.25 1.91,-4.62 -1.24,-4.61 l -13.78,0.15 -49.92,-217.18 28.77,-12.88 c 3.25,-1.92 2.64,-5.21 -1.47,-4.8 l -31.29,0.3 -32.56,-141.68 h 237.05 l -57.13,248.53 -17.81,-0.25 c -3.53,0.24 -3.74,3.11 -1.43,4.66 l 15.81,10.1 -48.66,212.11"
         style="fill:#286d78;fill-opacity:1;fill-rule:nonzero;stroke:none"
         id="path206" /><path
         d="m 3593.18,2015.97 c -3.6,12.41 -14.89,11.79 -17.69,0 l -19.48,-76 12.15,-4.67 c 2.65,-1.07 1.81,-3.94 -1.17,-3.93 l -13.09,0.13 -47.42,-185.46 27.33,-11.01 c 3.08,-1.63 2.5,-4.44 -1.4,-4.09 l -29.71,0.26 -30.94,-120.99 h 225.15 l -54.25,212.22 -16.93,-0.2 c -3.34,0.19 -3.55,2.64 -1.35,3.97 l 15.01,8.63 -46.21,181.14"
         style="fill:#286d78;fill-opacity:1;fill-rule:nonzero;stroke:none"
         id="path208" /><path
         d="m 4475.38,1916.9 c -2.72,9.41 -11.29,8.94 -13.41,0 l -14.75,-57.57 9.2,-3.55 c 2.01,-0.81 1.37,-2.99 -0.89,-2.99 l -9.91,0.11 -35.93,-140.54 20.7,-8.34 c 2.33,-1.23 1.9,-3.37 -1.06,-3.09 l -22.51,0.19 -23.45,-91.68 h 170.6 l -41.1,160.81 -12.83,-0.14 c -2.53,0.14 -2.69,2 -1.02,3.01 l 11.38,6.53 -35.02,137.25"
         style="fill:#286d78;fill-opacity:1;fill-rule:nonzero;stroke:none"
         id="path210" /><path
         d="m 4117.01,2042.29 c -3.83,13.21 -15.85,12.55 -18.83,0 l -20.75,-80.92 12.94,-4.98 c 2.82,-1.15 1.92,-4.2 -1.25,-4.19 l -13.93,0.14 -50.49,-197.5 29.09,-11.72 c 3.29,-1.73 2.67,-4.73 -1.5,-4.36 l -31.64,0.28 -32.93,-128.83 h 239.75 l -57.77,225.99 -18.02,-0.21 c -3.56,0.2 -3.79,2.81 -1.44,4.22 l 15.99,9.18 -49.22,192.9"
         style="fill:#286d78;fill-opacity:1;fill-rule:nonzero;stroke:none"
         id="path212" /><path
         d="m 3956.16,1962.97 c -3.12,10.79 -12.94,10.25 -15.37,0 l -16.94,-66.07 10.56,-4.06 c 2.31,-0.94 1.58,-3.43 -1.02,-3.43 l -11.37,0.13 -41.23,-161.25 23.76,-9.56 c 2.69,-1.43 2.18,-3.87 -1.22,-3.56 l -25.83,0.22 -26.89,-105.18 h 195.74 l -47.17,184.51 -14.72,-0.18 c -2.91,0.17 -3.08,2.3 -1.17,3.45 l 13.06,7.5 -40.19,157.48"
         style="fill:#286d78;fill-opacity:1;fill-rule:nonzero;stroke:none"
         id="path214" /><path
         d="m 7455.68,1427.52 h -565.56 v 147.05 h 565.56 v -147.05"
         style="fill:#ffffff;fill-opacity:1;fill-rule:nonzero;stroke:none"
         id="path216" /><path
         d="m 6667.26,1427.52 h 222.86 v 147.05 l -111.43,122.8 -111.43,-122.8 v -147.05"
         style="fill:#368f97;fill-opacity:1;fill-rule:nonzero;stroke:none"
         id="path218" /><path
         d="m 6890.12,1574.57 h 565.56 l -111.42,122.8 h -565.57 l 111.43,-122.8"
         style="fill:#fab933;fill-opacity:1;fill-rule:nonzero;stroke:none"
         id="path220" /><path
         d="m 6952.02,1512.11 h -27.14 v 23.9 h 27.14 v -23.9"
         style="fill:#225674;fill-opacity:1;fill-rule:nonzero;stroke:none"
         id="path222" /><path
         d="m 7343.41,1512.11 h -27.13 v 23.9 h 27.13 v -23.9"
         style="fill:#225674;fill-opacity:1;fill-rule:nonzero;stroke:none"
         id="path224" /><path
         d="m 7421.69,1512.11 h -27.13 v 23.9 h 27.13 v -23.9"
         style="fill:#225674;fill-opacity:1;fill-rule:nonzero;stroke:none"
         id="path226" /><path
         d="m 7030.29,1512.11 h -27.13 v 23.9 h 27.13 v -23.9"
         style="fill:#225674;fill-opacity:1;fill-rule:nonzero;stroke:none"
         id="path228" /><path
         d="m 7108.57,1512.11 h -27.12 v 23.9 h 27.12 v -23.9"
         style="fill:#225674;fill-opacity:1;fill-rule:nonzero;stroke:none"
         id="path230" /><path
         d="m 7186.86,1512.11 h -27.13 v 23.9 h 27.13 v -23.9"
         style="fill:#225674;fill-opacity:1;fill-rule:nonzero;stroke:none"
         id="path232" /><path
         d="M 7265.14,1512.11 H 7238 v 23.9 h 27.14 v -23.9"
         style="fill:#225674;fill-opacity:1;fill-rule:nonzero;stroke:none"
         id="path234" /><path
         d="m 6725.05,1469.81 h -20.42 v 66.2 h 20.42 v -66.2"
         style="fill:#225674;fill-opacity:1;fill-rule:nonzero;stroke:none"
         id="path236" /><path
         d="m 6788.9,1469.81 h -20.42 v 66.2 h 20.42 v -66.2"
         style="fill:#225674;fill-opacity:1;fill-rule:nonzero;stroke:none"
         id="path238" /><path
         d="m 6852.74,1469.81 h -20.42 v 66.2 h 20.42 v -66.2"
         style="fill:#225674;fill-opacity:1;fill-rule:nonzero;stroke:none"
         id="path240" /><path
         d="m 5744.68,1427.52 h -341.39 v 291.85 h 341.39 v -291.85"
         style="fill:#ffffff;fill-opacity:1;fill-rule:nonzero;stroke:none"
         id="path242" /><path
         d="m 5180.43,1427.52 h 222.86 v 291.85 l -111.42,122.81 -111.44,-122.81 v -291.85"
         style="fill:#368f97;fill-opacity:1;fill-rule:nonzero;stroke:none"
         id="path244" /><path
         d="m 5403.29,1719.37 h 341.39 l -111.43,122.81 h -341.38 l 111.42,-122.81"
         style="fill:#fab933;fill-opacity:1;fill-rule:nonzero;stroke:none"
         id="path246" /><path
         d="m 5265.78,1614.61 h -53.74 v 66.2 h 53.74 v -66.2"
         style="fill:#225674;fill-opacity:1;fill-rule:nonzero;stroke:none"
         id="path248" /><path
         d="m 5371.68,1614.61 h -53.74 v 66.2 h 53.74 v -66.2"
         style="fill:#225674;fill-opacity:1;fill-rule:nonzero;stroke:none"
         id="path250" /><path
         d="m 5265.78,1483.14 h -53.74 v 66.21 h 53.74 v -66.21"
         style="fill:#225674;fill-opacity:1;fill-rule:nonzero;stroke:none"
         id="path252" /><path
         d="m 5371.68,1483.14 h -53.74 v 66.21 h 53.74 v -66.21"
         style="fill:#225674;fill-opacity:1;fill-rule:nonzero;stroke:none"
         id="path254" /><path
         d="m 5441.3,1614.61 h 53.75 v 66.2 h -53.75 v -66.2"
         style="fill:#225674;fill-opacity:1;fill-rule:nonzero;stroke:none"
         id="path256" /><path
         d="m 5547.2,1614.61 h 53.75 v 66.2 h -53.75 v -66.2"
         style="fill:#225674;fill-opacity:1;fill-rule:nonzero;stroke:none"
         id="path258" /><path
         d="m 5653.1,1680.81 v -66.2 h 53.75 v 66.2 h -53.75"
         style="fill:#225674;fill-opacity:1;fill-rule:nonzero;stroke:none"
         id="path260" /><path
         d="m 5441.3,1483.14 h 53.75 v 66.21 h -53.75 v -66.21"
         style="fill:#225674;fill-opacity:1;fill-rule:nonzero;stroke:none"
         id="path262" /><path
         d="m 5547.2,1427.52 h 53.75 v 121.83 h -53.75 v -121.83"
         style="fill:#225674;fill-opacity:1;fill-rule:nonzero;stroke:none"
         id="path264" /><path
         d="m 5653.1,1549.35 v -66.21 h 53.75 v 66.21 h -53.75"
         style="fill:#225674;fill-opacity:1;fill-rule:nonzero;stroke:none"
         id="path266" /><path
         d="m 5487.9,1773.2 h -36.89 v 91.12 h 36.89 v -91.12"
         style="fill:#ffffff;fill-opacity:1;fill-rule:nonzero;stroke:none"
         id="path268" /><path
         d="m 5428.02,1864.32 v -65.78 l 22.99,-25.34 v 91.12 h -22.99"
         style="fill:#368f97;fill-opacity:1;fill-rule:nonzero;stroke:none"
         id="path270" /><path
         d="m 2558.96,1523.11 h -3.85 v 24.46 c 0,3.4 2.6,5.85 6.17,5.85 v -3.84 c -1.45,0 -2.32,-0.75 -2.32,-2.01 v -24.46"
         style="fill:#225674;fill-opacity:1;fill-rule:nonzero;stroke:none"
         id="path272" /><path
         d="m 2559.64,1507.61 h -5.2 c -0.9,0 -1.64,0.73 -1.64,1.64 v 14.39 c 0,0.91 0.74,1.64 1.64,1.64 h 5.2 c 0.9,0 1.64,-0.73 1.64,-1.64 v -14.39 c 0,-0.91 -0.74,-1.64 -1.64,-1.64"
         style="fill:#225674;fill-opacity:1;fill-rule:nonzero;stroke:none"
         id="path274" /><path
         d="m 2474.64,1465.56 c 0,-3.02 -2.45,-5.47 -5.48,-5.47 -3.03,0 -5.48,2.45 -5.48,5.47 0,3.01 2.45,5.47 5.48,5.47 3.03,0 5.48,-2.46 5.48,-5.47"
         style="fill:#225674;fill-opacity:1;fill-rule:nonzero;stroke:none"
         id="path276" /><path
         d="m 2523.63,1517.03 h -22.25 c -1.58,0 -2.86,1.51 -2.86,3.34 v 26.3 c 0,1.84 1.28,3.34 2.86,3.34 h 17.15 c 1.57,0 2.86,-1.5 2.86,-3.34 l 5.1,-26.3 c 0,-1.83 -1.28,-3.34 -2.86,-3.34 z m -30.33,4.51 c 0,-2.48 -2.05,-4.51 -4.54,-4.51 h -18.91 c -2.49,0 -4.53,2.03 -4.53,4.51 v 23.96 c 0,2.48 2.04,4.51 4.53,4.51 h 18.91 c 2.49,0 4.54,-2.03 4.54,-4.51 z m 92.16,-12.38 h -49.41 l -8.3,45.63 h -67.58 v -46.62 l -6.45,-1.23 -9.11,-7.26 12.7,-13.74 c 0,0 31.21,-18.23 51.07,-19.75 h 74.9 l 5.72,38.88 c 0.32,2.16 -1.35,4.09 -3.54,4.09"
         style="fill:#fab933;fill-opacity:1;fill-rule:nonzero;stroke:none"
         id="path278" /><path
         d="m 2529.92,1554.43 c 0,0.02 0.01,0.04 0.01,0.07 0,3.04 -3.44,5.53 -6.45,5.53 H 2464 c -3.2,0 -5.81,-2.49 -5.81,-5.53 0,-0.03 0,-0.05 0,-0.07 h 71.73"
         style="fill:#225674;fill-opacity:1;fill-rule:nonzero;stroke:none"
         id="path280" /><path
         d="m 2435.73,1489.09 -2.9,3.48 20.07,16.63 h 34.4 l 16.66,-13.54 -2.87,-3.5 -15.41,12.52 h -31.15 l -18.8,-15.59"
         style="fill:#225674;fill-opacity:1;fill-rule:nonzero;stroke:none"
         id="path282" /><path
         d="m 2507.2,1461.99 v 6.93 l -1.35,0.73 c -0.23,2.07 -0.64,4.08 -1.2,6.03 l 0.96,1.18 -2.68,6.39 -1.48,0.16 c -0.98,1.76 -2.11,3.43 -3.36,5 l 0.43,1.42 -4.92,4.9 -1.41,-0.41 c -1.62,1.29 -3.36,2.45 -5.19,3.46 l -0.15,1.44 -6.43,2.64 -1.12,-0.91 c -1.93,0.54 -3.93,0.94 -5.97,1.17 l -0.7,1.27 h -6.95 l -0.69,-1.27 c -2.12,-0.25 -4.18,-0.66 -6.17,-1.24 l -1.1,0.93 -6.41,-2.67 -0.11,-1.44 c -1.8,-1 -3.49,-2.14 -5.09,-3.42 l -1.39,0.45 -4.92,-4.9 0.46,-1.41 c -1.3,-1.63 -2.46,-3.37 -3.47,-5.2 l -1.49,-0.12 -2.64,-6.41 0.99,-1.16 c -0.53,-1.92 -0.93,-3.88 -1.15,-5.9 l -1.38,-0.71 v -6.93 l 1.41,-0.72 c 0.24,-2.05 0.65,-4.06 1.22,-6.01 l -1.04,-1.21 2.68,-6.39 1.61,-0.13 c 0.97,-1.72 2.08,-3.35 3.31,-4.89 l -0.51,-1.56 4.92,-4.9 1.57,0.51 c 1.59,-1.25 3.27,-2.37 5.04,-3.35 l 0.14,-1.65 6.43,-2.64 1.26,1.09 c 1.87,-0.53 3.79,-0.91 5.77,-1.14 l 0.75,-1.48 h 6.95 l 0.76,1.47 c 2.02,0.24 3.99,0.63 5.89,1.17 l 1.31,-1.05 6.41,2.67 0.17,1.65 c 1.7,0.94 3.32,2.03 4.84,3.22 l 1.59,-0.47 4.92,4.9 -0.47,1.57 c 1.25,1.56 2.38,3.23 3.37,5 l 1.6,0.16 2.64,6.41 -1,1.23 c 0.54,1.87 0.93,3.81 1.16,5.79 l 1.38,0.75"
         style="fill:#225674;fill-opacity:1;fill-rule:nonzero;stroke:none"
         id="path284" /><path
         d="m 2600.9,1452.03 v 4.92 l -0.96,0.53 c -0.17,1.47 -0.46,2.9 -0.85,4.29 l 0.68,0.83 -1.91,4.55 -1.05,0.11 c -0.7,1.25 -1.5,2.44 -2.39,3.56 l 0.3,1.01 -3.49,3.48 -1.01,-0.3 c -1.15,0.93 -2.38,1.75 -3.69,2.47 l -0.1,1.03 -4.57,1.87 -0.8,-0.65 c -1.38,0.39 -2.79,0.67 -4.25,0.84 l -0.49,0.89 h -4.94 l -0.5,-0.89 c -1.5,-0.18 -2.97,-0.47 -4.39,-0.89 l -0.77,0.66 -4.56,-1.89 -0.08,-1.03 c -1.28,-0.71 -2.49,-1.52 -3.62,-2.43 l -1,0.32 -3.49,-3.48 0.33,-1.01 c -0.92,-1.16 -1.75,-2.39 -2.47,-3.69 l -1.06,-0.09 -1.88,-4.56 0.71,-0.82 c -0.38,-1.37 -0.66,-2.76 -0.82,-4.2 l -0.98,-0.51 v -4.92 l 1,-0.51 c 0.17,-1.46 0.46,-2.89 0.86,-4.27 l -0.73,-0.86 1.9,-4.55 1.15,-0.09 c 0.69,-1.22 1.48,-2.38 2.35,-3.48 l -0.36,-1.11 3.49,-3.48 1.13,0.36 c 1.13,-0.89 2.32,-1.69 3.58,-2.38 l 0.1,-1.17 4.57,-1.88 0.9,0.76 c 1.33,-0.37 2.69,-0.64 4.09,-0.8 l 0.55,-1.05 h 4.94 l 0.54,1.05 c 1.43,0.16 2.83,0.44 4.18,0.82 l 0.94,-0.74 4.56,1.9 0.12,1.17 c 1.21,0.67 2.35,1.44 3.43,2.29 l 1.14,-0.33 3.49,3.48 -0.33,1.11 c 0.89,1.12 1.69,2.31 2.39,3.56 l 1.14,0.12 1.88,4.55 -0.71,0.88 c 0.38,1.33 0.66,2.71 0.83,4.12 l 0.98,0.53"
         style="fill:#225674;fill-opacity:1;fill-rule:nonzero;stroke:none"
         id="path286" /><path
         d="m 2492.43,1465.56 c 0,-12.82 -10.42,-23.21 -23.27,-23.21 -12.85,0 -23.27,10.39 -23.27,23.21 0,12.81 10.42,23.2 23.27,23.2 12.85,0 23.27,-10.39 23.27,-23.2"
         style="fill:#368f97;fill-opacity:1;fill-rule:nonzero;stroke:none"
         id="path288" /><path
         d="m 2474.64,1465.56 c 0,-3.02 -2.45,-5.47 -5.48,-5.47 -3.03,0 -5.48,2.45 -5.48,5.47 0,3.01 2.45,5.47 5.48,5.47 3.03,0 5.48,-2.46 5.48,-5.47"
         style="fill:#2f5cb2;fill-opacity:1;fill-rule:nonzero;stroke:none"
         id="path290" /><path
         d="m 2469.16,1471.03 c -3.03,0 -5.48,-2.46 -5.48,-5.47 0,-3.02 2.45,-5.47 5.48,-5.47 3.03,0 5.48,2.45 5.48,5.47 0,3.01 -2.45,5.47 -5.48,5.47"
         style="fill:#225674;fill-opacity:1;fill-rule:nonzero;stroke:none"
         id="path292" /><path
         d="m 2585.26,1454.17 c 0,-6.28 -5.11,-11.38 -11.41,-11.38 -6.31,0 -11.41,5.1 -11.41,11.38 0,6.29 5.1,11.39 11.41,11.39 6.3,0 11.41,-5.1 11.41,-11.39"
         style="fill:#368f97;fill-opacity:1;fill-rule:nonzero;stroke:none"
         id="path294" /><path
         d="m 2577.34,1454.17 c 0,-1.92 -1.56,-3.49 -3.49,-3.49 -1.94,0 -3.5,1.57 -3.5,3.49 0,1.93 1.56,3.5 3.5,3.5 1.93,0 3.49,-1.57 3.49,-3.5"
         style="fill:#225674;fill-opacity:1;fill-rule:nonzero;stroke:none"
         id="path296" /><path
         d="m 2470.68,1476.89 c 0,-0.84 -0.68,-1.51 -1.52,-1.51 -0.84,0 -1.52,0.67 -1.52,1.51 0,0.84 0.68,1.52 1.52,1.52 0.84,0 1.52,-0.68 1.52,-1.52"
         style="fill:#225674;fill-opacity:1;fill-rule:nonzero;stroke:none"
         id="path298" /><path
         d="m 2470.68,1454.22 c 0,-0.84 -0.68,-1.51 -1.52,-1.51 -0.84,0 -1.52,0.67 -1.52,1.51 0,0.84 0.68,1.51 1.52,1.51 0.84,0 1.52,-0.67 1.52,-1.51"
         style="fill:#225674;fill-opacity:1;fill-rule:nonzero;stroke:none"
         id="path300" /><path
         d="m 2480.53,1464.04 c -0.84,0 -1.52,0.68 -1.52,1.52 0,0.84 0.68,1.51 1.52,1.51 0.84,0 1.52,-0.67 1.52,-1.51 0,-0.84 -0.68,-1.52 -1.52,-1.52"
         style="fill:#225674;fill-opacity:1;fill-rule:nonzero;stroke:none"
         id="path302" /><path
         d="m 2457.79,1464.04 c -0.84,0 -1.52,0.68 -1.52,1.52 0,0.84 0.68,1.51 1.52,1.51 0.84,0 1.52,-0.67 1.52,-1.51 0,-0.84 -0.68,-1.52 -1.52,-1.52"
         style="fill:#225674;fill-opacity:1;fill-rule:nonzero;stroke:none"
         id="path304" /><path
         d="m 2478.27,1472.5 c -0.59,-0.59 -1.55,-0.59 -2.15,0 -0.59,0.6 -0.59,1.55 0,2.15 0.6,0.58 1.56,0.58 2.15,0 0.6,-0.6 0.6,-1.55 0,-2.15"
         style="fill:#225674;fill-opacity:1;fill-rule:nonzero;stroke:none"
         id="path306" /><path
         d="m 2462.19,1456.46 c -0.59,-0.58 -1.55,-0.58 -2.15,0 -0.59,0.6 -0.59,1.56 0,2.15 0.6,0.59 1.56,0.59 2.15,0 0.6,-0.59 0.6,-1.55 0,-2.15"
         style="fill:#225674;fill-opacity:1;fill-rule:nonzero;stroke:none"
         id="path308" /><path
         d="m 2476.12,1456.46 c -0.59,0.6 -0.59,1.56 0,2.15 0.6,0.59 1.56,0.59 2.15,0 0.6,-0.59 0.6,-1.55 0,-2.15 -0.59,-0.58 -1.55,-0.58 -2.15,0"
         style="fill:#225674;fill-opacity:1;fill-rule:nonzero;stroke:none"
         id="path310" /><path
         d="m 2460.04,1472.5 c -0.59,0.6 -0.59,1.55 0,2.15 0.6,0.58 1.56,0.58 2.15,0 0.6,-0.6 0.6,-1.55 0,-2.15 -0.59,-0.59 -1.55,-0.59 -2.15,0"
         style="fill:#225674;fill-opacity:1;fill-rule:nonzero;stroke:none"
         id="path312" /><path
         d="m 2581.11,1501.13 h -11.78 c -0.36,0 -0.66,0.3 -0.66,0.67 v 0 c 0,0.36 0.3,0.65 0.66,0.65 h 11.78 c 0.36,0 0.66,-0.29 0.66,-0.65 v 0 c 0,-0.37 -0.3,-0.67 -0.66,-0.67"
         style="fill:#225674;fill-opacity:1;fill-rule:nonzero;stroke:none"
         id="path314" /><path
         d="m 2581.11,1498.34 h -11.78 c -0.36,0 -0.66,0.3 -0.66,0.66 v 0 c 0,0.37 0.3,0.67 0.66,0.67 h 11.78 c 0.36,0 0.66,-0.3 0.66,-0.67 v 0 c 0,-0.36 -0.3,-0.66 -0.66,-0.66"
         style="fill:#225674;fill-opacity:1;fill-rule:nonzero;stroke:none"
         id="path316" /><path
         d="m 2581.11,1495.55 h -11.78 c -0.36,0 -0.66,0.3 -0.66,0.66 v 0 c 0,0.36 0.3,0.66 0.66,0.66 h 11.78 c 0.36,0 0.66,-0.3 0.66,-0.66 v 0 c 0,-0.36 -0.3,-0.66 -0.66,-0.66"
         style="fill:#225674;fill-opacity:1;fill-rule:nonzero;stroke:none"
         id="path318" /><path
         d="m 2507.34,1508.44 h -6.44 c -0.75,0 -1.36,0.61 -1.36,1.36 v 0 c 0,0.75 0.61,1.36 1.36,1.36 h 6.44 c 0.75,0 1.36,-0.61 1.36,-1.36 v 0 c 0,-0.75 -0.61,-1.36 -1.36,-1.36"
         style="fill:#225674;fill-opacity:1;fill-rule:nonzero;stroke:none"
         id="path320" /><path
         d="m 2098.39,1427.52 h -313.6 l 27.1,390.68 h 259.4 l 27.1,-390.68"
         style="fill:#ffffff;fill-opacity:1;fill-rule:nonzero;stroke:none"
         id="path322" /><path
         d="m 2058.34,1818.2 h -233.49 v 37.51 h 233.49 v -37.51"
         style="fill:#368f97;fill-opacity:1;fill-rule:nonzero;stroke:none"
         id="path324" /><path
         d="m 1941.59,1934.98 -156.8,-79.27 h 313.6 z"
         style="fill:#fab933;fill-opacity:1;fill-rule:nonzero;stroke:none"
         id="path326" /><path
         d="m 2058.34,1818.2 h -233.49 v 37.51 h 233.49 v -37.51"
         style="fill:#eb9a1a;fill-opacity:1;fill-rule:nonzero;stroke:none"
         id="path328" /><path
         d="m 1957.83,1716.79 v 37.98 c 0,8.9 -7.31,16.19 -16.24,16.19 v 0 c -8.92,0 -16.23,-7.29 -16.23,-16.19 v -37.98 h 32.47"
         style="fill:#225674;fill-opacity:1;fill-rule:nonzero;stroke:none"
         id="path330" /><path
         d="m 1957.83,1595.78 v 37.97 c 0,8.91 -7.31,16.19 -16.24,16.19 v 0 c -8.92,0 -16.23,-7.28 -16.23,-16.19 v -37.97 h 32.47"
         style="fill:#225674;fill-opacity:1;fill-rule:nonzero;stroke:none"
         id="path332" /><path
         d="m 1971.99,1427.52 v 71.09 c 0,16.67 -13.68,30.32 -30.4,30.32 v 0 c -16.71,0 -30.39,-13.65 -30.39,-30.32 v -71.09 h 60.79"
         style="fill:#225674;fill-opacity:1;fill-rule:nonzero;stroke:none"
         id="path334" /><path
         d="m 1970.34,1834.47 c 0,-15.83 -12.87,-28.66 -28.75,-28.66 -15.87,0 -28.74,12.83 -28.74,28.66 0,15.84 12.87,28.67 28.74,28.67 15.88,0 28.75,-12.83 28.75,-28.67"
         style="fill:#225674;fill-opacity:1;fill-rule:nonzero;stroke:none"
         id="path336" /><path
         d="m 2170.23,1560.03 -153.48,153.06 46.57,46.43 153.48,-153.06 -46.57,-46.43"
         style="fill:#225674;fill-opacity:1;fill-rule:nonzero;stroke:none"
         id="path338" /><path
         d="m 2090.4,1679.92 -146.04,145.65 6.17,6.16 146.04,-145.65 -6.17,-6.16"
         style="fill:#225674;fill-opacity:1;fill-rule:nonzero;stroke:none"
         id="path340" /><path
         d="m 1712.95,2108.93 153.49,-153.06 -46.57,-46.44 -153.48,153.06 46.56,46.44"
         style="fill:#225674;fill-opacity:1;fill-rule:nonzero;stroke:none"
         id="path342" /><path
         d="m 1792.79,1989.03 146.04,-145.64 -6.17,-6.16 -146.04,145.64 6.17,6.16"
         style="fill:#225674;fill-opacity:1;fill-rule:nonzero;stroke:none"
         id="path344" /><path
         d="m 1666.39,1606.46 153.48,153.06 46.57,-46.43 -153.49,-153.06 -46.56,46.43"
         style="fill:#225674;fill-opacity:1;fill-rule:nonzero;stroke:none"
         id="path346" /><path
         d="m 1786.62,1686.08 146.04,145.65 6.17,-6.16 -146.04,-145.65 -6.17,6.16"
         style="fill:#225674;fill-opacity:1;fill-rule:nonzero;stroke:none"
         id="path348" /><path
         d="m 2216.8,2062.49 -153.48,-153.06 -46.57,46.44 153.48,153.06 46.57,-46.44"
         style="fill:#225674;fill-opacity:1;fill-rule:nonzero;stroke:none"
         id="path350" /><path
         d="m 2096.57,1982.87 -146.04,-145.64 -6.17,6.16 146.04,145.64 6.17,-6.16"
         style="fill:#225674;fill-opacity:1;fill-rule:nonzero;stroke:none"
         id="path352" /><path
         d="m 4123.01,1427.52 c 0,0 -55.38,0 -62.42,0 -7.05,0 -12.76,10.8 -12.76,24.13 0,13.33 5.71,24.14 12.76,24.14 5.28,0 62.42,0 62.42,0 v -48.27"
         style="fill:#dd8b19;fill-opacity:1;fill-rule:nonzero;stroke:none"
         id="path354" /><path
         d="m 4135.76,1451.65 c 0,-13.33 -5.71,-24.13 -12.75,-24.13 -7.04,0 -12.76,10.8 -12.76,24.13 0,13.33 5.72,24.14 12.76,24.14 7.04,0 12.75,-10.81 12.75,-24.14"
         style="fill:#fab933;fill-opacity:1;fill-rule:nonzero;stroke:none"
         id="path356" /><path
         d="m 4088.05,1427.52 c 0,0 -55.38,0 -62.42,0 -7.05,0 -12.76,10.8 -12.76,24.13 0,13.33 5.71,24.14 12.76,24.14 5.28,0 62.42,0 62.42,0 v -48.27"
         style="fill:#dd8b19;fill-opacity:1;fill-rule:nonzero;stroke:none"
         id="path358" /><path
         d="m 4100.8,1451.65 c 0,-13.33 -5.71,-24.13 -12.75,-24.13 -7.04,0 -12.76,10.8 -12.76,24.13 0,13.33 5.72,24.14 12.76,24.14 7.04,0 12.75,-10.81 12.75,-24.14"
         style="fill:#fab933;fill-opacity:1;fill-rule:nonzero;stroke:none"
         id="path360" /><path
         d="m 4106.5,1475.79 c 0,0 -55.38,0 -62.42,0 -7.04,0 -12.75,10.8 -12.75,24.13 0,13.33 5.71,24.14 12.75,24.14 5.29,0 62.42,0 62.42,0 v -48.27"
         style="fill:#dd8b19;fill-opacity:1;fill-rule:nonzero;stroke:none"
         id="path362" /><path
         d="m 4119.26,1499.92 c 0,-13.33 -5.71,-24.13 -12.76,-24.13 -7.04,0 -12.75,10.8 -12.75,24.13 0,13.33 5.71,24.14 12.75,24.14 7.05,0 12.76,-10.81 12.76,-24.14"
         style="fill:#fab933;fill-opacity:1;fill-rule:nonzero;stroke:none"
         id="path364" /><path
         d="m 4274.99,1427.52 c 0,0 -55.38,0 -62.43,0 -7.04,0 -12.76,10.8 -12.76,24.13 0,13.33 5.72,24.14 12.76,24.14 5.28,0 62.43,0 62.43,0 v -48.27"
         style="fill:#dd8b19;fill-opacity:1;fill-rule:nonzero;stroke:none"
         id="path366" /><path
         d="m 4287.74,1451.65 c 0,-13.33 -5.71,-24.13 -12.75,-24.13 -7.05,0 -12.75,10.8 -12.75,24.13 0,13.33 5.7,24.14 12.75,24.14 7.04,0 12.75,-10.81 12.75,-24.14"
         style="fill:#fab933;fill-opacity:1;fill-rule:nonzero;stroke:none"
         id="path368" /><path
         d="m 4240.03,1427.52 c 0,0 -55.38,0 -62.42,0 -7.05,0 -12.76,10.8 -12.76,24.13 0,13.33 5.71,24.14 12.76,24.14 5.28,0 62.42,0 62.42,0 v -48.27"
         style="fill:#dd8b19;fill-opacity:1;fill-rule:nonzero;stroke:none"
         id="path370" /><path
         d="m 4252.78,1451.65 c 0,-13.33 -5.71,-24.13 -12.75,-24.13 -7.04,0 -12.75,10.8 -12.75,24.13 0,13.33 5.71,24.14 12.75,24.14 7.04,0 12.75,-10.81 12.75,-24.14"
         style="fill:#fab933;fill-opacity:1;fill-rule:nonzero;stroke:none"
         id="path372" /><path
         d="m 4258.49,1475.79 c 0,0 -55.38,0 -62.43,0 -7.04,0 -12.75,10.8 -12.75,24.13 0,13.33 5.71,24.14 12.75,24.14 5.29,0 62.43,0 62.43,0 v -48.27"
         style="fill:#dd8b19;fill-opacity:1;fill-rule:nonzero;stroke:none"
         id="path374" /><path
         d="m 4271.24,1499.92 c 0,-13.33 -5.71,-24.13 -12.75,-24.13 -7.04,0 -12.76,10.8 -12.76,24.13 0,13.33 5.72,24.14 12.76,24.14 7.04,0 12.75,-10.81 12.75,-24.14"
         style="fill:#fab933;fill-opacity:1;fill-rule:nonzero;stroke:none"
         id="path376" /><path
         d="m 1184.99,1494.52 c 34.48,55.84 112.81,62.65 149.83,7.47 5.91,-8.81 15.89,-13.54 26.44,-12.35 29.65,3.32 55.13,-6.45 77.2,-25.29 7.7,-6.59 18.55,-8.38 27.39,-3.42 12.52,7.02 29.26,9.65 44.99,5.91 8.77,-2.09 18.12,1.68 22.51,9.54 25.33,45.38 86.75,52.37 116.6,10.65 5.53,-7.73 14.39,-11.99 23.88,-11.18 34.08,2.92 60.99,-16.62 82.61,-48.33 h -285.79 -49.91 -383.45 c 34.48,29.15 70.55,48.95 110.32,47.06 15.32,-0.73 29.33,6.91 37.38,19.94"
         style="fill:#3db884;fill-opacity:1;fill-rule:nonzero;stroke:none"
         id="path378" /><path
         d="m 1275.07,1428.1 c 0,0 27.78,24.93 84.12,22.22 7.41,-0.35 14.65,2.15 20.64,6.51 13.29,9.64 28.36,14.45 45.53,12.65 7.35,-0.77 14.32,2.65 18.49,8.73 25.31,36.85 78.65,31.21 100.69,-7.89 4.43,-7.87 13.39,-11.53 22.42,-10.97 26.88,1.67 51.21,-11.61 74.45,-31.25 h -366.34"
         style="fill:#6fcc98;fill-opacity:1;fill-rule:nonzero;stroke:none"
         id="path380" /><path
         d="m 4800.66,1427.52 1.46,130.7 c 0,0 -39.13,12.7 -42.84,70.91 h 5.65 c 0,0 4.95,-45.51 37.15,-52.57 v 36.34 h 11.32 l 4.42,-185.38 h -17.16"
         style="fill:#225674;fill-opacity:1;fill-rule:nonzero;stroke:none"
         id="path382" /><path
         d="m 4764.07,1619.54 c -20.85,8.99 -40.3,21.86 -55.27,34.28 -3.37,2.79 -6.66,5.67 -9.89,8.62 -7.78,7.12 -14.85,15.15 -19.78,24.51 -11.17,21.26 -10.08,47.34 -1.98,69.93 6.81,19.04 17.76,36.74 30.48,52.38 13.32,16.38 26.79,32.95 43.79,45.73 20.23,15.22 45.62,24.44 70.61,17.11 24.66,-7.25 46.27,-29.07 61.89,-48.86 16.72,-21.2 31.6,-46.02 34.68,-73.27 5.02,-44.26 -19.65,-85.16 -47.63,-117.33 -28.51,-32.77 -69.9,-29.06 -106.9,-13.1"
         style="fill:#368f97;fill-opacity:1;fill-rule:nonzero;stroke:none"
         id="path384" /><path
         d="m 4958.68,1427.52 1.36,107.04 c 0,0 -42.1,13.06 -46.16,74.43 l 5.28,-2.29 c 0,0 5.78,-51.76 40.88,-57.26 l -0.11,42.39 h 10.04 l 0.67,-28.64 c 19.57,5.95 32.57,21.01 35.33,38.93 l 3.82,3.66 c 0,0 3.22,-35.42 -38.91,-52.05 l 3.01,-126.21 h -15.21"
         style="fill:#225674;fill-opacity:1;fill-rule:nonzero;stroke:none"
         id="path386" /><path
         d="m 4926.25,1597.71 c -18.48,7.96 -35.72,19.38 -48.98,30.39 -2.99,2.47 -5.91,5.02 -8.77,7.64 -6.9,6.31 -13.17,13.42 -17.53,21.72 -9.91,18.84 -8.94,41.95 -1.76,61.98 6.04,16.87 15.74,32.56 27.01,46.42 11.81,14.52 23.75,29.21 38.82,40.54 17.93,13.47 40.43,21.66 62.58,15.15 21.85,-6.41 41,-25.76 54.84,-43.3 14.83,-18.79 28.02,-40.79 30.75,-64.94 4.45,-39.22 -17.42,-75.48 -42.22,-103.99 -25.26,-29.05 -61.95,-25.75 -94.74,-11.61"
         style="fill:#2d7786;fill-opacity:1;fill-rule:nonzero;stroke:none"
         id="path388" /><path
         d="m 6288.01,1427.52 1.79,141.36 c 0,0 -55.59,17.23 -60.95,98.28 l 6.97,-3.02 c 0,0 7.64,-68.35 53.98,-75.6 l -0.13,55.95 h 13.24 l 0.91,-37.81 c 25.81,7.86 43,27.74 46.64,51.41 l 5.05,4.84 c 0,0 4.25,-46.78 -51.4,-68.74 l 3.98,-166.67 h -20.08"
         style="fill:#225674;fill-opacity:1;fill-rule:nonzero;stroke:none"
         id="path390" /><path
         d="m 6245.19,1652.27 c -24.41,10.51 -47.18,25.58 -64.7,40.12 -3.94,3.27 -7.8,6.63 -11.57,10.09 -9.11,8.34 -17.39,17.73 -23.16,28.69 -13.07,24.88 -11.79,55.4 -2.31,81.85 7.98,22.27 20.79,43.01 35.66,61.31 15.6,19.17 31.37,38.56 51.26,53.52 23.68,17.8 53.4,28.61 82.65,20.02 28.86,-8.48 54.15,-34.02 72.43,-57.19 19.58,-24.8 36.98,-53.86 40.6,-85.75 5.87,-51.81 -23,-99.68 -55.76,-137.33 -33.36,-38.35 -81.8,-34.01 -125.1,-15.33"
         style="fill:#2d7786;fill-opacity:1;fill-rule:nonzero;stroke:none"
         id="path392" /><path
         d="M 5133.04,1476.03 H 4654.7 v 8.82 h 478.34 v -8.82"
         style="fill:#b6e6e6;fill-opacity:1;fill-rule:nonzero;stroke:none"
         id="path394" /><path
         d="M 5133.04,1440.15 H 4654.7 v 8.82 h 478.34 v -8.82"
         style="fill:#b6e6e6;fill-opacity:1;fill-rule:nonzero;stroke:none"
         id="path396" /><path
         d="m 4672.26,1505.68 c -0.69,0.84 -2.01,0.84 -2.69,0 l -7.64,-9.33 c -0.23,-0.29 -0.36,-0.63 -0.36,-0.99 v -66.22 c 0,-0.9 0.76,-1.62 1.71,-1.62 h 15.26 c 0.95,0 1.71,0.72 1.71,1.62 v 66.22 c 0,0.36 -0.12,0.7 -0.36,0.99 l -7.63,9.33"
         style="fill:#ffffff;fill-opacity:1;fill-rule:nonzero;stroke:none"
         id="path398" /><path
         d="m 4704.16,1505.68 c -0.68,0.84 -2,0.84 -2.69,0 l -7.63,-9.33 c -0.24,-0.29 -0.36,-0.63 -0.36,-0.99 v -66.22 c 0,-0.9 0.76,-1.62 1.71,-1.62 h 15.26 c 0.95,0 1.71,0.72 1.71,1.62 v 66.22 c 0,0.36 -0.13,0.7 -0.36,0.99 l -7.64,9.33"
         style="fill:#ffffff;fill-opacity:1;fill-rule:nonzero;stroke:none"
         id="path400" /><path
         d="m 4736.06,1505.68 c -0.68,0.84 -2,0.84 -2.68,0 l -7.64,-9.33 c -0.23,-0.29 -0.36,-0.63 -0.36,-0.99 v -66.22 c 0,-0.9 0.76,-1.62 1.71,-1.62 h 15.26 c 0.95,0 1.71,0.72 1.71,1.62 v 66.22 c 0,0.36 -0.12,0.7 -0.36,0.99 l -7.64,9.33"
         style="fill:#ffffff;fill-opacity:1;fill-rule:nonzero;stroke:none"
         id="path402" /><path
         d="m 4767.97,1505.68 c -0.68,0.84 -2,0.84 -2.69,0 l -7.63,-9.33 c -0.24,-0.29 -0.36,-0.63 -0.36,-0.99 v -66.22 c 0,-0.9 0.76,-1.62 1.7,-1.62 h 15.27 c 0.95,0 1.71,0.72 1.71,1.62 v 66.22 c 0,0.36 -0.13,0.7 -0.36,0.99 l -7.64,9.33"
         style="fill:#ffffff;fill-opacity:1;fill-rule:nonzero;stroke:none"
         id="path404" /><path
         d="m 4799.87,1505.68 c -0.67,0.84 -2,0.84 -2.68,0 l -7.64,-9.33 c -0.23,-0.29 -0.36,-0.63 -0.36,-0.99 v -66.22 c 0,-0.9 0.76,-1.62 1.71,-1.62 h 15.26 c 0.95,0 1.71,0.72 1.71,1.62 v 66.22 c 0,0.36 -0.13,0.7 -0.36,0.99 l -7.64,9.33"
         style="fill:#ffffff;fill-opacity:1;fill-rule:nonzero;stroke:none"
         id="path406" /><path
         d="m 4831.78,1505.68 c -0.37,0.46 -0.93,0.61 -1.48,0.57 -0.54,0.04 -1.1,-0.11 -1.48,-0.57 l -7.64,-9.33 c -0.22,-0.29 -0.35,-0.63 -0.35,-0.99 v -66.22 c 0,-0.9 0.76,-1.62 1.7,-1.62 h 0.27 15 0.27 c 0.94,0 1.71,0.72 1.71,1.62 v 66.22 c 0,0.36 -0.13,0.7 -0.37,0.99 l -7.63,9.33"
         style="fill:#ffffff;fill-opacity:1;fill-rule:nonzero;stroke:none"
         id="path408" /><path
         d="m 4863.68,1505.68 c -0.37,0.46 -0.93,0.61 -1.47,0.57 -0.55,0.04 -1.11,-0.11 -1.49,-0.57 l -7.62,-9.33 c -0.24,-0.29 -0.37,-0.63 -0.37,-0.99 v -66.22 c 0,-0.9 0.77,-1.62 1.7,-1.62 h 0.28 15 0.27 c 0.94,0 1.7,0.72 1.7,1.62 v 66.22 c 0,0.36 -0.13,0.7 -0.36,0.99 l -7.64,9.33"
         style="fill:#ffffff;fill-opacity:1;fill-rule:nonzero;stroke:none"
         id="path410" /><path
         d="m 4895.59,1505.68 c -0.38,0.46 -0.93,0.61 -1.48,0.57 -0.55,0.04 -1.1,-0.11 -1.48,-0.57 l -7.63,-9.33 c -0.23,-0.29 -0.36,-0.63 -0.36,-0.99 v -66.22 c 0,-0.9 0.76,-1.62 1.7,-1.62 h 0.27 15 0.27 c 0.94,0 1.7,0.72 1.7,1.62 v 66.22 c 0,0.36 -0.12,0.7 -0.36,0.99 l -7.63,9.33"
         style="fill:#ffffff;fill-opacity:1;fill-rule:nonzero;stroke:none"
         id="path412" /><path
         d="m 4927.49,1505.68 c -0.37,0.46 -0.93,0.61 -1.47,0.57 -0.55,0.04 -1.11,-0.11 -1.49,-0.57 l -7.63,-9.33 c -0.23,-0.29 -0.36,-0.63 -0.36,-0.99 v -66.22 c 0,-0.9 0.76,-1.62 1.7,-1.62 h 0.28 15 0.27 c 0.94,0 1.7,0.72 1.7,1.62 v 66.22 c 0,0.36 -0.13,0.7 -0.36,0.99 l -7.64,9.33"
         style="fill:#ffffff;fill-opacity:1;fill-rule:nonzero;stroke:none"
         id="path414" /><path
         d="m 4959.39,1505.68 c -0.37,0.46 -0.92,0.61 -1.47,0.57 -0.55,0.04 -1.1,-0.11 -1.47,-0.57 l -7.64,-9.33 c -0.24,-0.29 -0.36,-0.63 -0.36,-0.99 v -66.22 c 0,-0.9 0.76,-1.62 1.7,-1.62 h 0.27 15 0.27 c 0.94,0 1.7,0.72 1.7,1.62 v 66.22 c 0,0.36 -0.12,0.7 -0.36,0.99 l -7.64,9.33"
         style="fill:#ffffff;fill-opacity:1;fill-rule:nonzero;stroke:none"
         id="path416" /><path
         d="m 4991.04,1505.68 c -0.69,0.84 -2.02,0.84 -2.7,0 l -7.63,-9.33 c -0.23,-0.29 -0.36,-0.63 -0.36,-0.99 v -66.22 c 0,-0.9 0.76,-1.62 1.7,-1.62 h 15.27 c 0.94,0 1.7,0.72 1.7,1.62 v 66.22 c 0,0.36 -0.11,0.7 -0.35,0.99 l -7.63,9.33"
         style="fill:#ffffff;fill-opacity:1;fill-rule:nonzero;stroke:none"
         id="path418" /><path
         d="m 5022.94,1505.68 c -0.68,0.84 -2.01,0.84 -2.69,0 l -7.63,-9.33 c -0.24,-0.29 -0.36,-0.63 -0.36,-0.99 v -66.22 c 0,-0.9 0.76,-1.62 1.7,-1.62 h 15.27 c 0.94,0 1.7,0.72 1.7,1.62 v 66.22 c 0,0.36 -0.13,0.7 -0.35,0.99 l -7.64,9.33"
         style="fill:#ffffff;fill-opacity:1;fill-rule:nonzero;stroke:none"
         id="path420" /><path
         d="m 5054.84,1505.68 c -0.68,0.84 -2.01,0.84 -2.69,0 l -7.63,-9.33 c -0.23,-0.29 -0.36,-0.63 -0.36,-0.99 v -66.22 c 0,-0.9 0.76,-1.62 1.7,-1.62 h 15.27 c 0.94,0 1.7,0.72 1.7,1.62 v 66.22 c 0,0.36 -0.12,0.7 -0.35,0.99 l -7.64,9.33"
         style="fill:#ffffff;fill-opacity:1;fill-rule:nonzero;stroke:none"
         id="path422" /><path
         d="m 5086.75,1505.68 c -0.69,0.84 -2.01,0.84 -2.69,0 l -7.63,-9.33 c -0.24,-0.29 -0.37,-0.63 -0.37,-0.99 v -66.22 c 0,-0.9 0.77,-1.62 1.7,-1.62 h 15.28 c 0.93,0 1.7,0.72 1.7,1.62 v 66.22 c 0,0.36 -0.13,0.7 -0.36,0.99 l -7.63,9.33"
         style="fill:#ffffff;fill-opacity:1;fill-rule:nonzero;stroke:none"
         id="path424" /><path
         d="m 5126.29,1496.35 -7.64,9.33 c -0.68,0.84 -2.01,0.84 -2.69,0 l -7.63,-9.33 c -0.23,-0.29 -0.36,-0.63 -0.36,-0.99 v -66.22 c 0,-0.9 0.76,-1.62 1.7,-1.62 h 15.27 c 0.94,0 1.7,0.72 1.7,1.62 v 66.22 c 0,0.36 -0.12,0.7 -0.35,0.99"
         style="fill:#ffffff;fill-opacity:1;fill-rule:nonzero;stroke:none"
         id="path426" /><path
         d="m 6120.95,1494.52 c 34.48,55.84 112.8,62.65 149.83,7.47 5.91,-8.81 15.88,-13.54 26.44,-12.35 29.65,3.32 55.13,-6.45 77.19,-25.29 7.71,-6.59 18.55,-8.38 27.4,-3.42 12.52,7.02 29.25,9.65 44.99,5.91 8.77,-2.09 18.12,1.68 22.51,9.54 25.33,45.38 86.74,52.37 116.59,10.65 5.54,-7.73 14.39,-11.99 23.89,-11.18 34.08,2.92 60.98,-16.62 82.6,-48.33 h -285.78 -49.92 -383.44 c 34.47,29.15 70.54,48.95 110.31,47.06 15.33,-0.73 29.34,6.91 37.39,19.94"
         style="fill:#349b80;fill-opacity:1;fill-rule:nonzero;stroke:none"
         id="path428" /><path
         d="m 6211.03,1428.1 c 0,0 27.78,24.93 84.12,22.22 7.4,-0.35 14.64,2.15 20.63,6.51 13.29,9.64 28.36,14.45 45.53,12.65 7.35,-0.77 14.32,2.65 18.49,8.73 25.32,36.85 78.66,31.21 100.7,-7.89 4.43,-7.87 13.39,-11.53 22.42,-10.97 26.87,1.67 51.21,-11.61 74.44,-31.25 h -366.33"
         style="fill:#6fcc98;fill-opacity:1;fill-rule:nonzero;stroke:none"
         id="path430" /><path
         d="m 3953.12,1427.52 h -565.57 v 147.05 h 565.57 v -147.05"
         style="fill:#ffffff;fill-opacity:1;fill-rule:nonzero;stroke:none"
         id="path432" /><path
         d="m 3164.69,1427.52 h 222.86 v 147.05 l -111.43,122.8 -111.43,-122.8 v -147.05"
         style="fill:#368f97;fill-opacity:1;fill-rule:nonzero;stroke:none"
         id="path434" /><path
         d="m 3387.55,1574.57 h 565.57 l -111.43,122.8 h -565.57 l 111.43,-122.8"
         style="fill:#fab933;fill-opacity:1;fill-rule:nonzero;stroke:none"
         id="path436" /><path
         d="m 3449.45,1512.11 h -27.13 v 23.9 h 27.13 v -23.9"
         style="fill:#225674;fill-opacity:1;fill-rule:nonzero;stroke:none"
         id="path438" /><path
         d="m 3840.84,1512.11 h -27.13 v 23.9 h 27.13 v -23.9"
         style="fill:#225674;fill-opacity:1;fill-rule:nonzero;stroke:none"
         id="path440" /><path
         d="m 3919.12,1512.11 h -27.13 v 23.9 h 27.13 v -23.9"
         style="fill:#225674;fill-opacity:1;fill-rule:nonzero;stroke:none"
         id="path442" /><path
         d="m 3527.73,1512.11 h -27.13 v 23.9 h 27.13 v -23.9"
         style="fill:#225674;fill-opacity:1;fill-rule:nonzero;stroke:none"
         id="path444" /><path
         d="m 3606.01,1512.11 h -27.14 v 23.9 h 27.14 v -23.9"
         style="fill:#225674;fill-opacity:1;fill-rule:nonzero;stroke:none"
         id="path446" /><path
         d="m 3684.29,1512.11 h -27.14 v 23.9 h 27.14 v -23.9"
         style="fill:#225674;fill-opacity:1;fill-rule:nonzero;stroke:none"
         id="path448" /><path
         d="m 3762.56,1512.11 h -27.13 v 23.9 h 27.13 v -23.9"
         style="fill:#225674;fill-opacity:1;fill-rule:nonzero;stroke:none"
         id="path450" /><path
         d="m 3222.48,1469.81 h -20.42 v 66.2 h 20.42 v -66.2"
         style="fill:#225674;fill-opacity:1;fill-rule:nonzero;stroke:none"
         id="path452" /><path
         d="m 3286.33,1469.81 h -20.42 v 66.2 h 20.42 v -66.2"
         style="fill:#225674;fill-opacity:1;fill-rule:nonzero;stroke:none"
         id="path454" /><path
         d="m 3350.18,1469.81 h -20.42 v 66.2 h 20.42 v -66.2"
         style="fill:#225674;fill-opacity:1;fill-rule:nonzero;stroke:none"
         id="path456" /><path
         d="m 3831.16,1462.56 c -7.74,0 -14.93,-2.34 -20.9,-6.34 -6.73,-4.83 -15.31,-5.24 -21.97,3.06 -11.32,16.14 -30.06,26.71 -51.32,26.71 -23.69,0 -44.25,-13.13 -54.89,-32.46 -3.76,-6.79 -9.98,-8.61 -18.27,-4.29 -3.85,2.14 -8.28,3.36 -13.01,3.36 -14.27,0 -25.91,-11.09 -26.84,-25.08 h 169.7 5.87 69.12 c -1.28,19.56 -17.56,35.04 -37.49,35.04"
         style="fill:#225674;fill-opacity:1;fill-rule:nonzero;stroke:none"
         id="path458" /><path
         d="m 3240.14,1427.52 h -265.57 v 147.05 h 265.57 v -147.05"
         style="fill:#ffffff;fill-opacity:1;fill-rule:nonzero;stroke:none"
         id="path460" /><path
         d="m 2751.71,1427.52 h 222.86 v 147.05 l -111.44,122.8 -111.42,-122.8 v -147.05"
         style="fill:#368f97;fill-opacity:1;fill-rule:nonzero;stroke:none"
         id="path462" /><path
         d="m 2974.57,1574.57 h 265.57 l -111.43,122.8 h -265.58 l 111.44,-122.8"
         style="fill:#fab933;fill-opacity:1;fill-rule:nonzero;stroke:none"
         id="path464" /><path
         d="m 3036.46,1469.81 h -27.12 v 66.2 h 27.12 v -66.2"
         style="fill:#225674;fill-opacity:1;fill-rule:nonzero;stroke:none"
         id="path466" /><path
         d="m 3121.3,1469.81 h -27.13 v 66.2 h 27.13 v -66.2"
         style="fill:#225674;fill-opacity:1;fill-rule:nonzero;stroke:none"
         id="path468" /><path
         d="m 3206.14,1469.81 h -27.13 v 66.2 h 27.13 v -66.2"
         style="fill:#225674;fill-opacity:1;fill-rule:nonzero;stroke:none"
         id="path470" /><path
         d="m 2809.5,1469.81 h -20.42 v 66.2 h 20.42 v -66.2"
         style="fill:#225674;fill-opacity:1;fill-rule:nonzero;stroke:none"
         id="path472" /><path
         d="m 2873.34,1469.81 h -20.42 v 66.2 h 20.42 v -66.2"
         style="fill:#225674;fill-opacity:1;fill-rule:nonzero;stroke:none"
         id="path474" /><path
         d="m 2937.19,1469.81 h -20.41 v 66.2 h 20.41 v -66.2"
         style="fill:#225674;fill-opacity:1;fill-rule:nonzero;stroke:none"
         id="path476" /><path
         d="m 625.313,857.309 c 396.587,90.179 591.777,105.41 995.697,101.839 252.62,-17.418 734.89,-41.609 965.71,-4.5 151.55,28.563 28.15,93.662 -27.76,103.412 -55.91,9.74 -175.9,20.09 -347.14,22.16 -363.52,4.4 -850.96,16.23 -665,171.03 202.44,104.38 683.81,61.33 683.81,61.33 0,0 186.64,-12.32 194.2,22.6 -5.91,87.54 -431.91,-6.33 -488.26,92.34 h 10.05 c 72.89,-84.4 524.53,25.97 503.91,-100.38 -15.55,-56.34 -222.46,-41.85 -222.46,-41.85 0,0 -491.63,33.68 -637.85,-53.29 -200.6,-169.39 861.01,-57.13 1067.92,-137.28 102.24,-35.81 154.45,-136.849 47.03,-184.169 -253.83,-88.09 -1023.89,-41.27 -1023.89,-41.27 0,0 -651.13,23.52 -1041.983,-69.222 l -13.984,57.25"
         style="fill:#7fd2a2;fill-opacity:1;fill-rule:nonzero;stroke:none"
         id="path478" /><path
         d="m 7500,2067.74 -120.57,525.56 c -21.07,80.98 -87.33,76.98 -103.72,0 l -114.28,-495.74 71.26,-30.48 c 15.54,-6.99 10.61,-25.72 -6.89,-25.7 l -76.75,0.91 -278.11,-1209.97 160.25,-71.75 c 18.12,-10.648 14.71,-29.031 -8.22,-26.738 L 6848.69,735.559 6679.62,0 H 7500 v 2067.74"
         style="fill:#286d78;fill-opacity:1;fill-rule:nonzero;stroke:none"
         id="path480" /><path
         d="m 6521.67,327.859 -99.63,0.879 L 6338,0 h 715.59 l -162.25,634.66 -56.75,-0.68 c -11.21,0.661 -11.9,8.872 -4.51,13.309 l 50.33,28.93 -154.97,607.351 c -12.04,41.63 -49.92,39.56 -59.29,0 l -65.33,-254.79 40.73,-15.67 c 8.89,-3.6 6.08,-13.219 -3.93,-13.212 l -43.87,0.472 -158.98,-621.878 91.6,-36.89 c 10.36,-5.473 8.41,-14.922 -4.7,-13.743"
         style="fill:#359e89;fill-opacity:1;fill-rule:nonzero;stroke:none"
         id="path482" /><path
         d="m 2529.7,0 c -37.74,110.789 -127.33,197.359 -229.94,237.34 -58.88,22.941 -121.11,32.152 -183.64,31.058 -143.3,-3.976 -42.02,113.704 -33.83,167.352 9.15,59.91 -8.38,120.781 -45.8,168.172 -62.53,79.187 -171.49,107.648 -268.97,97.449 -4.89,-0.512 -9.76,-1.141 -14.62,-1.871 -19.05,-2.891 -37.83,-7.629 -55.8,-14.621 -37.89,-14.039 -58.97,12.23 -34.57,64.43 143.3,295.541 -159.76,724.681 -536.89,603.221 -87.08,-36.61 -156.32,-80.03 -214.964,-139.47 -24.383,-23.64 -39.043,-10.16 -35.063,12.31 59.246,248.97 -177.765,368.13 -351.035,261.53 -42.515,-26.16 -97.312,2.28 -98.035,52.09 -3.582,245.62 -160.242,425.73 -419.14066,272.42 -2.58984,-0.92 -5,-1.99 -7.40234,-3.06 L 0,0 h 2529.7"
         style="fill:#286d78;fill-opacity:1;fill-rule:nonzero;stroke:none"
         id="path484" /><path
         d="m 1486.36,0 c -22.98,63.4219 -74.89,112.859 -134.14,135.949 -45.36,17.672 -94.1,21.52 -142.2,16.02 -28.49,-3.25 -53.57,17.82 -55.86,46.34 -4.31,53.632 -42.7,106.793 -91.13,125.921 -30.66,12.11 -62.98,14.059 -95.214,9.442 -33.183,-5.043 -39.929,15.34 -19.07,47.019 11.231,17.77 20.641,36.981 28.063,56.879 84.421,174.121 -94.129,426.95 -316.313,355.391 -38.75,-16.301 -74.41,-39.992 -106.301,-68.981 -26.48,-21.082 -49.722,-15.851 -48.218,19.329 2.187,118.043 -103.274,180.902 -192.164,133.093 -26.27,-14.132 -57.36,4.68 -57.02,34.45 C 258.723,1083.92 113.297,1175.81 0,1133.97 V 0 h 1486.36"
         style="fill:#359e89;fill-opacity:1;fill-rule:nonzero;stroke:none"
         id="path486" /><path
         d="m 2217.43,296.199 c -40.56,-4.687 -74.22,23.653 -74.22,23.653 0,0 32.11,35.929 72.67,40.617 40.56,4.683 74.22,-23.66 74.22,-23.66 0,0 -32.11,-35.93 -72.67,-40.61"
         style="fill:#286d78;fill-opacity:1;fill-rule:nonzero;stroke:none"
         id="path488" /><path
         d="m 390.719,999.352 c -29.918,-53.762 -94.387,-70.02 -94.387,-70.02 0,0 -15.977,70.878 13.941,124.638 29.915,53.75 94.379,70.01 94.379,70.01 0,0 15.977,-70.88 -13.933,-124.628"
         style="fill:#359e89;fill-opacity:1;fill-rule:nonzero;stroke:none"
         id="path490" /><path
         d="m 2204.99,437.262 c -22.8,-54.223 -80.76,-83.641 -80.76,-83.641 0,0 -21,58.5 1.8,112.719 22.79,54.211 80.75,83.629 80.75,83.629 0,0 21,-58.5 -1.79,-112.707"
         style="fill:#286d78;fill-opacity:1;fill-rule:nonzero;stroke:none"
         id="path492" /><path
         d="m 6037.62,219.75 4.39,345.84 c 0,0 -136.01,42.172 -149.13,240.469 l 17.06,-7.399 c 0,0 18.68,-167.211 132.07,-184.98 l -0.34,136.929 h 32.41 l 2.21,-92.519 c 63.16,19.219 105.21,67.879 114.12,125.781 l 12.36,11.828 c 0,0 10.39,-114.437 -125.75,-168.168 l 9.73,-407.781 h -49.13"
         style="fill:#225674;fill-opacity:1;fill-rule:nonzero;stroke:none"
         id="path494" /><path
         d="m 5932.84,769.609 c -59.71,25.743 -115.42,62.61 -158.28,98.172 -9.64,8 -19.08,16.239 -28.32,24.699 -22.28,20.391 -42.53,43.36 -56.64,70.2 -31.99,60.86 -28.85,135.52 -5.66,200.24 19.52,54.5 50.85,105.2 87.26,149.99 38.14,46.9 76.73,94.36 125.4,130.95 57.94,43.55 130.65,69.99 202.21,48.98 70.61,-20.73 132.48,-83.25 177.2,-139.9 47.92,-60.7 90.5,-131.8 99.34,-209.82 14.37,-126.73 -56.29,-243.85 -136.42,-335.991 -81.62,-93.828 -200.14,-83.188 -306.09,-37.52"
         style="fill:#3ab092;fill-opacity:1;fill-rule:nonzero;stroke:none"
         id="path496" /><path
         d="m 6023.28,987.289 -64.44,92.721 -65.31,11.57 1.08,6.74 51.87,-0.56 -30.14,54.72 7.15,4.03 101.31,-132.85 -1.52,-36.371"
         style="fill:#225674;fill-opacity:1;fill-rule:nonzero;stroke:none"
         id="path498" /><path
         d="m 5864.75,199.551 c 0,0 27.78,24.929 84.13,22.23 7.39,-0.351 14.64,2.149 20.62,6.5 13.29,9.66 28.36,14.449 45.53,12.66 7.35,-0.769 14.33,2.641 18.51,8.731 25.3,36.84 78.64,31.207 100.68,-7.891 4.43,-7.871 13.39,-11.543 22.42,-10.98 26.88,1.668 51.21,-11.602 74.44,-31.25 h -366.33"
         style="fill:#6fcc98;fill-opacity:1;fill-rule:nonzero;stroke:none"
         id="path500" /></g></g></svg>
